<svg width="24" height="25" viewBox="0 0 24 25" fill="none" xmlns="http://www.w3.org/2000/svg">
<g clip-path="url(#clip0_909_5321)">
<path d="M7 10.3089V6.34615C7 5.06087 7.52678 3.82824 8.46447 2.91941C9.40215 2.01058 10.6739 1.5 12 1.5C13.3261 1.5 14.5979 2.01058 15.5355 2.91941C16.4732 3.82824 17 5.06087 17 6.34615V10.3089M2.83333 7.96154C2.61232 7.96154 2.40036 8.04663 2.24408 8.19811C2.0878 8.34958 2 8.55502 2 8.76923V19.6731C2 21.1996 3.34167 22.5 4.91667 22.5H19.0833C20.6583 22.5 22 21.2627 22 19.7362V8.76923C22 8.55502 21.9122 8.34958 21.7559 8.19811C21.5996 8.04663 21.3877 7.96154 21.1667 7.96154H2.83333Z" stroke="#A09696" stroke-width="1.5" stroke-linecap="round" stroke-linejoin="round"/>
</g>
<defs>
<clipPath id="clip0_909_5321">
<rect width="24" height="24" fill="white" transform="translate(0 0.5)"/>
</clipPath>
</defs>
</svg>
