<svg width="152" height="138" viewBox="0 0 152 138" fill="none" xmlns="http://www.w3.org/2000/svg">
<g clip-path="url(#clip0_909_5253)">
<path d="M69.2008 72.0749C68.8185 72.7131 68.3097 73.2671 67.7053 73.7033C67.0767 74.1628 66.3913 74.5399 65.6659 74.825C64.9379 75.1124 64.1838 75.329 63.4139 75.472C62.7113 75.6048 62 75.687 61.2855 75.718C61.8714 75.9025 62.5215 76.1435 63.2013 76.4338C63.8937 76.7264 64.5595 77.0778 65.1913 77.4842C65.8157 77.8865 66.3885 78.3631 66.8969 78.9035C67.3817 79.4066 67.7378 80.0182 67.9352 80.6869C68.2356 81.6588 68.2722 82.6925 68.0415 83.6831C67.8027 84.6166 67.3595 85.486 66.7437 86.2291C66.0773 87.0281 65.2799 87.7092 64.3854 88.2437C63.4276 88.8235 62.4067 89.2931 61.3424 89.6434C60.2506 90.0051 59.1252 90.2573 57.9829 90.3961C56.8849 90.5364 55.7734 90.5364 54.6754 90.3961C52.8041 90.1853 50.9514 89.8342 49.1332 89.3458C47.8293 88.9836 46.5537 88.5273 45.3165 87.9805C44.0288 88.9481 42.5733 89.6719 41.0226 90.1157C39.4993 90.5389 37.9049 90.6461 36.3382 90.4306C35.1418 90.2895 34.2041 89.9689 33.5251 89.4688C32.9131 89.059 32.4501 88.4638 32.2051 87.7714C32.0044 87.1535 32.0228 86.4859 32.257 85.8798C32.512 85.2254 32.9679 84.6676 33.5597 84.2858C34.3027 83.8177 35.1537 83.5468 36.0317 83.4986C37.0403 83.4076 38.2021 83.5921 39.5147 84.0595C40.2739 84.3667 41.0093 84.7293 41.7148 85.1443C42.5223 85.6117 43.4897 86.1135 44.6169 86.6497C45.8803 85.4185 46.9622 84.0156 47.8305 82.4827C48.7913 80.8263 49.7644 79.0642 50.7499 77.1964C51.7354 75.3285 52.7819 73.4319 53.8893 71.5066C55.0164 69.5838 56.3419 67.7832 57.8445 66.1342L59.8493 63.8564C55.3722 63.1567 50.8037 63.2877 46.3745 64.2426C44.876 64.5495 43.426 65.0559 42.0634 65.748C40.9085 66.3329 39.8376 67.0692 38.8794 67.9373C38.0813 68.6591 37.4125 69.5109 36.9018 70.4563C36.4753 71.2215 36.2222 72.0703 36.1602 72.9432C36.1092 73.6788 36.302 74.4107 36.709 75.0267C37.1724 75.6713 37.8518 76.1301 38.6248 76.3206C39.6581 76.6486 40.5793 76.6781 41.3885 76.4092C42.1399 76.1735 42.8342 75.7857 43.4279 75.2703C43.9378 74.8362 44.3577 74.3073 44.6639 73.7132C44.9333 73.1646 45.047 72.7636 45.0001 72.5053C45.0001 72.4586 45.0396 72.4119 45.1237 72.3651C45.1985 72.3209 45.2838 72.2971 45.3709 72.2962C45.4629 72.3006 45.5505 72.3372 45.6181 72.3996C45.6651 72.4515 45.7004 72.5128 45.7217 72.5794C45.743 72.646 45.7498 72.7164 45.7417 72.7858V72.8128C45.6127 73.6446 45.2799 74.432 44.7726 75.1055C44.2866 75.7564 43.6695 76.2993 42.9607 76.6995C42.2565 77.0969 41.4786 77.3479 40.6741 77.4374C39.8654 77.532 39.0457 77.4359 38.2812 77.157C37.2177 76.8233 36.2735 76.1912 35.562 75.3367C34.9567 74.5886 34.6053 73.6688 34.5584 72.7095C34.5295 71.6663 34.7596 70.6322 35.2283 69.6986C35.7836 68.5648 36.561 67.5528 37.5149 66.7221C38.6738 65.7049 39.9859 64.8749 41.4033 64.2622C43.1379 63.5139 44.968 63.0073 46.8417 62.7568C49.2356 62.412 51.6541 62.2655 54.0723 62.3189C56.3018 62.3634 58.5223 62.6154 60.7046 63.0717C61.0088 62.815 61.3319 62.5815 61.6711 62.373C61.978 62.1792 62.3024 62.0145 62.6402 61.8811C63.2021 61.6466 63.507 61.6121 63.5548 61.7777C63.5993 61.9401 63.4139 62.1492 62.9912 62.4075C62.7611 62.566 62.543 62.7412 62.3386 62.9314C62.1958 63.053 62.0717 63.1947 61.9703 63.3521C63.3522 63.7049 64.696 64.1918 65.9823 64.8059C67.023 65.2849 67.9652 65.9522 68.7608 66.7738C69.4108 67.4453 69.8245 68.3084 69.9399 69.2337C70.0355 70.1324 69.7892 71.0794 69.2008 72.0749ZM43.8333 87.3262C43.0093 86.9277 42.2001 86.5308 41.4058 86.1356C40.5032 85.6944 39.5745 85.3083 38.6248 84.9795C37.8974 84.6992 37.1158 84.5857 36.3382 84.6474C35.7883 84.6936 35.266 84.9075 34.8427 85.2599C34.4925 85.564 34.257 85.9779 34.1752 86.4333C34.0931 86.8899 34.1544 87.3606 34.3508 87.7813C34.5705 88.247 34.9185 88.6411 35.3544 88.9177C35.9157 89.2615 36.5593 89.4493 37.2183 89.4614C38.4302 89.5156 39.6415 89.3403 40.7878 88.9448C41.879 88.5608 42.9058 88.0151 43.8333 87.3262ZM64.8452 65.3372C64.3468 65.0918 63.8293 64.887 63.2977 64.7247C62.7341 64.5509 62.1474 64.3934 61.5377 64.2524C60.3659 65.8628 59.1876 67.6717 58.0027 69.6789C56.8178 71.6862 55.6362 73.6902 54.4579 75.6909C53.2862 77.6982 52.1136 79.6177 50.9403 81.4495C49.91 83.1002 48.7327 84.6553 47.4226 86.0962C47.1754 86.3299 46.9653 86.5464 46.7527 86.7457C46.5401 86.9449 46.3201 87.1491 46.0853 87.3582C47.2975 87.8623 48.543 88.2831 49.813 88.6176C51.3939 89.0239 53.0051 89.3028 54.6309 89.4515C56.0536 89.5995 57.4915 89.481 58.8704 89.1022C60.0824 88.7694 61.2297 88.2364 62.2644 87.5254C63.1814 86.8953 63.965 86.0922 64.5708 85.1615C65.1132 84.3531 65.4453 83.4233 65.5373 82.4556C65.6061 81.5442 65.3912 80.6338 64.9218 79.8481C64.4406 79.0183 63.6372 78.3353 62.5116 77.799C61.8221 77.471 61.111 77.1899 60.3832 76.9577C59.6417 76.7265 58.9619 76.51 58.3414 76.3108C57.7209 76.1115 57.1919 75.932 56.7593 75.7696C56.3267 75.6073 56.0597 75.4302 55.9658 75.2432C55.9533 75.1146 55.9873 74.9858 56.0616 74.8799C56.1359 74.774 56.2456 74.6978 56.3712 74.6651C56.7337 74.5744 57.108 74.5395 57.4811 74.5618C57.9483 74.5741 58.4946 74.6086 59.1151 74.6651C59.7356 74.7217 60.3882 74.7537 61.068 74.7537C61.8462 74.7424 62.6133 74.5689 63.32 74.2445C64.0815 73.9144 64.7922 73.4788 65.431 72.9506C66.0527 72.4377 66.5877 71.829 67.0156 71.1475C67.4158 70.5338 67.6515 69.8284 67.7003 69.0984C67.7269 68.3807 67.5168 67.674 67.1021 67.0862C66.6736 66.4269 65.9189 65.8407 64.8378 65.3274L64.8452 65.3372Z" fill="#F2948D"/>
<path d="M83.3801 82.7631C83.0983 83.3715 82.7687 84.0431 82.3913 84.7778C82.0234 85.5034 81.6002 86.1999 81.1256 86.8613C80.693 87.4761 80.1716 88.024 79.5782 88.4873C79.0712 88.8999 78.4384 89.1288 77.7835 89.1367C77.4098 89.1434 77.0425 89.0399 76.728 88.839C76.412 88.6264 76.1715 88.3199 76.0407 87.9633C75.878 87.5081 75.8009 87.027 75.8133 86.544C75.8284 85.8996 75.9469 85.2619 76.1643 84.6548C75.8603 85.191 75.5241 85.7224 75.1607 86.2488C74.8121 86.7559 74.4244 87.2354 74.0014 87.6829C73.6224 88.0891 73.19 88.4424 72.7159 88.7333C72.3281 88.9842 71.8781 89.1238 71.4157 89.1367C71.2086 89.1352 71.002 89.1179 70.7977 89.085C70.3106 89.0058 69.8703 88.7499 69.5617 88.3667C69.3728 88.1325 69.2454 87.8553 69.1909 87.5599C69.1205 87.2025 69.1088 86.8362 69.1563 86.4751C69.2023 86.1214 69.2911 85.7745 69.4208 85.4419C69.5473 85.103 69.6994 84.7741 69.8756 84.458C70.0536 84.1406 70.2217 83.8209 70.3873 83.4937C70.2677 83.4938 70.1511 83.4568 70.0536 83.3879C69.9473 83.319 69.9522 83.1665 70.0709 82.9353C70.19 82.7435 70.2958 82.5438 70.3873 82.3375C70.4812 82.1285 70.5851 81.9194 70.7037 81.7078L71.7593 79.6784C72.1103 79.0019 72.4168 78.3943 72.6739 77.8556C72.785 77.6076 72.9777 77.4046 73.2202 77.28C73.4802 77.167 73.7623 77.1132 74.0459 77.1226H76.1915C75.9928 77.2531 75.8052 77.3996 75.6304 77.5604C75.4478 77.7292 75.2769 77.91 75.1187 78.1016C74.9193 78.3451 74.7376 78.6024 74.5749 78.8716C74.3429 79.257 74.1317 79.6544 73.942 80.0621C73.6108 80.6697 73.3191 81.2527 73.062 81.8136C72.8024 82.3056 72.5676 82.7975 72.3204 83.319C72.0732 83.8405 71.8853 84.2538 71.7222 84.581C71.3582 85.2937 71.1199 86.0634 71.0177 86.8564C70.9707 87.4615 71.0572 87.8871 71.2822 88.1331C71.5071 88.379 71.8384 88.4135 72.2858 88.2388C72.7332 88.0642 73.235 87.6485 73.7987 86.9966C74.3382 86.371 74.8259 85.703 75.2571 84.9992C75.7383 84.23 76.2022 83.4306 76.6489 82.6008C77.0955 81.771 77.5231 80.951 77.9318 80.1409C78.3422 79.3209 78.7113 78.5616 79.0393 77.863C79.1512 77.6155 79.3437 77.4127 79.5856 77.2874C79.8456 77.1744 80.1277 77.1206 80.4112 77.13H82.3171C82.0699 77.3415 81.8351 77.5334 81.6497 77.708C81.4479 77.9011 81.265 78.1128 81.1034 78.3402C80.9004 78.6316 80.7179 78.9365 80.5571 79.2528C80.3692 79.6169 80.1467 80.0679 79.8896 80.6058C79.6424 81.0978 79.3804 81.607 79.1332 82.1334C78.886 82.6598 78.6512 83.1764 78.4287 83.6806C78.2062 84.1849 78.0134 84.6523 77.8478 85.0853C77.7054 85.4428 77.5994 85.8136 77.5314 86.1922C77.3682 86.9302 77.3731 87.4713 77.5511 87.7887C77.607 87.9216 77.696 88.0381 77.8098 88.1273C77.9235 88.2164 78.0583 88.2751 78.2013 88.2979C78.6834 88.273 79.1397 88.0735 79.4842 87.737C79.9595 87.3197 80.379 86.8436 80.7326 86.3201C81.153 85.7137 81.5353 85.082 81.8771 84.4285C82.2413 83.7397 82.5759 83.0837 82.8807 82.4605C83.0208 82.1572 83.179 82.0465 83.3554 82.1285C83.5383 82.1973 83.5531 82.4064 83.3801 82.7631Z" fill="#F2948D"/>
<path d="M92.492 82.7631C92.2448 83.3018 91.9284 83.9069 91.5774 84.5859C91.2275 85.2625 90.8404 85.9195 90.418 86.5538C90.0151 87.1616 89.5422 87.7205 89.009 88.2191C88.5573 88.6603 88 88.9795 87.3898 89.1465C87.0611 89.212 86.7211 89.1943 86.401 89.0949C86.0212 88.9778 85.6921 88.7369 85.4666 88.411C85.1845 87.9896 85.0269 87.4978 85.0118 86.9917C84.9623 86.3988 85.1156 85.6436 85.4666 84.7335C85.6067 84.3842 85.7773 84.0111 85.9783 83.6142C86.1761 83.2182 86.3887 82.832 86.6111 82.4581C86.8336 82.0842 87.0388 81.7349 87.2267 81.4077C87.4145 81.0805 87.5554 80.8124 87.6494 80.6033C87.8966 80.0203 87.7656 79.6046 87.2267 79.3611C86.4984 79.0786 85.7215 78.9416 84.9401 78.9576L84.5174 80.0769C84.3073 80.6377 84.0477 81.2749 83.7436 81.9858C83.4396 82.6967 83.0985 83.4223 82.7227 84.1554C82.3622 84.8654 81.9627 85.5552 81.5263 86.2217C81.1598 86.7944 80.7357 87.3285 80.2606 87.8157C80.1197 87.9338 80.0134 87.9264 79.9269 87.7985C79.8874 87.7296 79.8712 87.6499 79.8805 87.5711C79.8898 87.4923 79.9243 87.4185 79.9788 87.3606C80.7048 86.4168 81.3522 85.4156 81.9144 84.3669C83.0616 82.236 83.9733 79.9877 84.6336 77.6613C84.95 76.5428 85.2021 75.4925 85.39 74.5102C85.4839 74.0182 85.6718 73.6976 85.9536 73.5483C86.0777 73.4738 86.2192 73.433 86.3641 73.43C86.509 73.427 86.6521 73.4618 86.7792 73.5311C87.0847 73.7116 87.3205 73.9888 87.4491 74.3183C87.631 74.7817 87.6613 75.2905 87.5357 75.7721C87.3955 76.3006 87.1095 76.7795 86.71 77.1545C86.3685 77.5063 85.9972 77.8281 85.6001 78.1164C86.3563 78.1664 87.1145 78.1779 87.8719 78.1508C88.7272 78.1278 89.5891 78.0696 90.4576 77.9761C90.5319 78.1352 90.5502 78.3146 90.5095 78.4853C90.4706 78.7227 90.4119 78.9563 90.334 79.1839C90.2499 79.4299 90.151 79.6882 90.0348 79.9564C89.9187 80.2245 89.8124 80.4631 89.7184 80.6722L89.2389 81.6094C89.0139 82.0522 88.7692 82.5491 88.4973 83.0853C88.2254 83.6216 87.9683 84.212 87.7235 84.8196C87.4981 85.3588 87.3154 85.9148 87.1772 86.4825C87.066 86.8867 87.0358 87.3088 87.0882 87.7247C87.1061 87.8736 87.1796 88.0103 87.2941 88.1079C87.4085 88.2054 87.5556 88.2565 87.7062 88.2511C88.0573 88.2511 88.4478 88.0174 88.8829 87.55C89.3527 87.039 89.777 86.4884 90.151 85.9044C90.5597 85.2765 90.9351 84.6279 91.2758 83.9611C91.6169 83.2969 91.8789 82.7778 92.0668 82.4039C92.2324 82.1014 92.3906 81.9956 92.5414 82.0891C92.6922 82.1826 92.6799 82.4064 92.492 82.7631Z" fill="#F2948D"/>
<path d="M109.452 67.4011C109.117 67.8001 108.817 68.2273 108.555 68.6777C108.12 69.3665 107.616 70.207 107.042 71.1991C106.469 72.1913 105.846 73.2941 105.176 74.5077C104.508 75.7229 103.863 76.9364 103.24 78.1483C102.617 79.3602 102.031 80.5279 101.483 81.6512C100.932 82.7713 100.492 83.7282 100.162 84.5219C100.069 84.731 99.9523 85.041 99.8114 85.4493C99.6711 85.8526 99.5709 86.2687 99.5123 86.6915C99.4502 87.0601 99.4739 87.438 99.5816 87.796C99.6887 88.1109 99.9532 88.2683 100.375 88.2683C100.82 88.2683 101.272 88.0346 101.727 87.5673C102.216 87.0637 102.652 86.5123 103.03 85.9216C103.435 85.3006 103.805 84.6576 104.137 83.9955L104.914 82.4556C105.052 82.1284 105.218 81.9956 105.408 82.0546C105.598 82.1137 105.606 82.3154 105.443 82.6672C105.232 83.1591 104.951 83.7716 104.6 84.5047C104.238 85.2559 103.814 85.9759 103.332 86.6571C102.871 87.324 102.32 87.9249 101.695 88.443C101.154 88.913 100.461 89.1748 99.7422 89.181C99.452 89.1778 99.1675 89.0999 98.9166 88.9546C98.6146 88.7733 98.3563 88.5281 98.1602 88.2364C97.9439 87.8544 97.7951 87.4384 97.7201 87.0064C97.6201 86.386 97.6624 85.7511 97.8437 85.1492C97.585 85.569 97.2859 86.0421 96.9464 86.5686C96.6161 87.0796 96.2325 87.5546 95.8019 87.9854C95.3981 88.392 94.9209 88.7192 94.3953 88.9497C93.8594 89.1715 93.2629 89.2019 92.707 89.0358C92.3392 88.9545 92 88.7768 91.7245 88.5212C91.4489 88.2656 91.2471 87.9413 91.1397 87.582C90.9147 86.7521 90.9028 85.8791 91.1051 85.0434C91.3294 84.0164 91.6902 83.0237 92.178 82.0915C92.6555 81.1389 93.2357 80.2406 93.9083 79.4127C94.3958 78.8542 94.9513 78.3584 95.5621 77.9368C96.1467 77.5286 96.7902 77.2109 97.4705 76.9946C98.1235 76.7854 98.8106 76.7019 99.495 76.7487C100.195 76.8004 100.873 77.0162 101.473 77.3784C102.316 75.7696 103.102 74.2232 103.831 72.739C104.559 71.2549 105.136 70.0356 105.561 69.0812C105.89 68.2891 106.229 67.775 106.582 67.5413C106.994 67.2942 107.478 67.1952 107.954 67.2608C108.204 67.2856 108.452 67.3267 108.696 67.3838C108.944 67.4397 109.201 67.4455 109.452 67.4011ZM101.183 77.9392C100.968 77.7337 100.698 77.5934 100.405 77.5347C100.112 77.4759 99.8086 77.501 99.5296 77.6072C98.7699 77.8625 98.0696 78.2674 97.4705 78.7977C96.7042 79.447 96.0083 80.1741 95.394 80.9674C94.7558 81.7772 94.1853 82.6378 93.6883 83.5404C93.1017 84.6375 92.7795 85.5715 92.7218 86.3422C92.6641 87.113 92.7869 87.6386 93.0901 87.919C93.395 88.1995 93.8465 88.1872 94.4448 87.8821C95.043 87.5771 95.7178 86.9006 96.4693 85.8527C97.1285 84.9426 97.8701 83.7807 98.6941 82.367C99.5181 80.9534 100.348 79.475 101.183 77.9319V77.9392Z" fill="#F2948D"/>
<path d="M117.755 82.7287C117.496 83.2674 117.175 83.8971 116.786 84.6203C116.399 85.3443 115.971 86.0457 115.504 86.7211C115.072 87.3494 114.57 87.927 114.008 88.443C113.587 88.8691 113.037 89.1457 112.443 89.2302C112.13 89.2497 111.816 89.1966 111.526 89.0752C111.187 88.9359 110.903 88.6896 110.718 88.3741C110.482 87.9434 110.355 87.4623 110.347 86.972C110.336 86.2061 110.449 85.4435 110.683 84.7138C110.401 85.1812 110.038 85.724 109.593 86.3422C109.164 86.9397 108.681 87.4963 108.149 88.0051C107.47 88.6611 106.843 89.0465 106.268 89.1613C106.02 89.2256 105.761 89.2354 105.509 89.19C105.256 89.1445 105.017 89.0449 104.807 88.8981C104.369 88.5488 104.065 88.0609 103.945 87.5156C103.766 86.7911 103.735 86.0381 103.856 85.3017C104.01 84.3321 104.3 83.3889 104.718 82.4999C105.245 81.3788 105.926 80.3364 106.743 79.4029C107.271 78.7615 107.908 78.2163 108.624 77.7917C109.322 77.3655 110.082 77.047 110.876 76.8471C111.603 76.6609 112.363 76.6366 113.101 76.7757C113.8 76.9081 114.437 77.265 114.913 77.7917C115.16 78.0499 115.246 78.2836 115.14 78.5296C115.089 78.6429 114.999 78.734 114.886 78.7856C114.772 78.8372 114.644 78.8459 114.525 78.8101C114.337 78.1582 113.956 77.7597 113.383 77.6195C112.748 77.4887 112.088 77.6011 111.534 77.9343C110.606 78.4831 109.772 79.1747 109.062 79.9834C108.223 80.8912 107.478 81.88 106.837 82.9353C106.768 83.0509 106.661 83.2379 106.52 83.4937C106.379 83.7495 106.234 84.0496 106.08 84.3866C105.927 84.7236 105.789 85.0754 105.658 85.437C105.536 85.7719 105.448 86.118 105.396 86.4702C105.302 87.0777 105.344 87.5205 105.517 87.801C105.59 87.9313 105.698 88.0393 105.829 88.1133C105.96 88.1874 106.108 88.2248 106.258 88.2216C106.658 88.1921 107.041 88.0524 107.366 87.8182C107.842 87.5024 108.268 87.1187 108.631 86.6792C109.243 85.9318 109.801 85.1427 110.302 84.3177C110.807 83.4879 111.294 82.6417 111.763 81.7791C112.07 81.1752 112.429 80.5991 112.836 80.0572C112.991 79.8627 113.194 79.7119 113.426 79.62C113.658 79.528 113.909 79.4981 114.156 79.5333C114.399 79.5576 114.64 79.5979 114.878 79.6538C115.126 79.7133 115.384 79.72 115.635 79.6735C115.348 79.9919 115.095 80.338 114.878 80.7066C114.559 81.1986 114.233 81.7791 113.889 82.4286C113.546 83.078 113.239 83.7298 112.957 84.3965C112.704 84.9845 112.504 85.5937 112.359 86.2168C112.077 87.6189 112.194 88.3192 112.71 88.3175C113.086 88.3421 113.498 88.1207 113.946 87.6534C114.434 87.1324 114.876 86.5703 115.266 85.9733C115.693 85.3336 116.086 84.6726 116.445 83.993C116.796 83.3371 117.066 82.818 117.254 82.4359C117.417 82.1334 117.582 82.0178 117.748 82.0866C117.914 82.1555 117.914 82.3794 117.755 82.7287Z" fill="#F2948D"/>
<path d="M92.22 49.0478C92.2751 49.7779 92.2023 50.5121 92.0049 51.2174C91.7971 51.965 91.4895 52.6815 91.0903 53.3477C90.6695 54.0487 90.1721 54.7013 89.6071 55.2935C88.4538 56.5126 87.0681 57.491 85.5308 58.1715C84.803 58.4961 84.0374 58.7291 83.2516 58.8652C82.9352 59.495 82.6386 60.0952 82.3592 60.6634C82.0799 61.2317 81.7462 61.8614 81.3581 62.5477C81.2864 62.6756 81.2122 62.7937 81.1331 62.9093C81.054 63.0249 80.9799 63.1553 80.9082 63.2734C81.4372 63.4037 82.0082 63.5686 82.6163 63.7653C83.2244 63.9621 83.8523 64.2081 84.4654 64.4738C85.0941 64.7402 85.708 65.0399 86.3045 65.3717C86.8818 65.6905 87.4346 66.0514 87.9583 66.4516C88.4465 66.8203 88.8686 67.2686 89.2066 67.7774C89.502 68.2229 89.7373 68.705 89.9062 69.2115C90.0482 69.6316 90.12 70.0721 90.1188 70.5153C90.1288 70.841 90.0593 71.1643 89.9161 71.4574C89.7994 71.6992 89.6126 71.9005 89.3797 72.0355C89.1498 72.1634 88.999 72.2175 88.9273 72.1954C88.8934 72.1867 88.8642 72.165 88.8462 72.1351C88.8281 72.1052 88.8227 72.0694 88.8309 72.0355C88.8464 71.9233 88.8824 71.8149 88.9372 71.7157L89.0979 71.3935C89.2014 71.141 89.2632 70.8735 89.2808 70.6014C89.3163 70.2341 89.3055 69.8639 89.2487 69.4994C89.1847 69.0835 89.058 68.6796 88.8729 68.3014C88.6749 67.8883 88.3929 67.5206 88.0448 67.2215C87.5274 66.7623 86.9534 66.3705 86.3367 66.0555C85.7093 65.7338 85.0591 65.4584 84.3912 65.2314C83.717 65.0041 83.0313 64.812 82.337 64.6558C81.6432 64.4918 80.9519 64.3483 80.263 64.2253C79.733 64.9768 79.132 65.6761 78.4683 66.3138C77.8787 66.8863 77.199 67.3591 76.4561 67.7135C75.8101 68.0452 75.0987 68.2316 74.3723 68.2596C73.8034 68.2838 73.2375 68.1663 72.7259 67.9176C72.3074 67.7068 71.9627 67.375 71.7371 66.9657C71.6315 66.7749 71.5646 66.5652 71.5405 66.3487C71.5163 66.1321 71.5352 65.913 71.5962 65.7037C71.7716 65.1855 72.0935 64.7286 72.5232 64.3877C73.1646 63.8777 73.9079 63.5096 74.7035 63.3078C75.1188 63.1868 75.5427 63.0972 75.9716 63.0397C76.4314 62.9757 76.9011 62.9314 77.3807 62.9118C77.8574 62.8859 78.3352 62.8859 78.8119 62.9118C79.2439 62.9361 79.674 62.9862 80.0998 63.0618C80.5151 62.4206 80.8991 61.7712 81.2518 61.1136C81.6003 60.4592 81.9711 59.7311 82.3568 58.9317C81.4315 58.9771 80.5065 58.8357 79.6376 58.5159C78.9275 58.2553 78.2878 57.8342 77.7688 57.286C77.3183 56.8056 77.0126 56.209 76.8863 55.5641C76.7648 54.9298 76.8515 54.2736 77.1335 53.6921C77.4828 53.0076 78.005 52.4252 78.6488 52.0021C79.5396 51.4261 80.5332 51.0253 81.5756 50.8214C81.747 50.7703 81.9264 50.752 82.1046 50.7673C82.2258 50.7894 82.29 50.8263 82.2974 50.8755C82.3049 50.9247 82.2505 50.9837 82.1368 51.0477C81.9745 51.1249 81.7994 51.1716 81.6201 51.1855C80.9161 51.2602 80.2464 51.5266 79.6846 51.9554C79.1442 52.361 78.7003 52.88 78.3843 53.4756C78.0809 54.04 77.9118 54.6661 77.8899 55.3058C77.8597 55.9085 78.0177 56.5057 78.3423 57.0154C78.7149 57.5629 79.2524 57.9789 79.8774 58.2035C80.5794 58.4889 81.5039 58.5602 82.6509 58.4175C82.7226 58.2749 82.8561 57.9575 83.0489 57.4656C83.2417 56.9736 83.4469 56.457 83.662 55.9134C83.9191 55.2853 84.191 54.594 84.4777 53.8397C84.9333 52.6446 85.5133 51.5003 86.2081 50.4253C86.6865 49.6774 87.2691 49.0008 87.9385 48.4156C88.3979 48.0075 88.9463 47.7111 89.5404 47.5497C89.9768 47.4337 90.4363 47.4337 90.8728 47.5497C91.237 47.6484 91.5632 47.8531 91.8096 48.1376C92.0393 48.3905 92.1829 48.709 92.22 49.0478ZM79.4275 64.1073C78.6893 63.9499 77.9352 63.8789 77.1804 63.8957C76.4294 63.9048 75.6824 64.0047 74.9556 64.1934C74.2504 64.3431 73.5769 64.6145 72.9657 64.9953C72.5819 65.2254 72.2722 65.56 72.0733 65.9596C72.0085 66.102 71.9788 66.2577 71.9865 66.4139C71.9942 66.57 72.0392 66.7221 72.1178 66.8574C72.2992 67.1546 72.5802 67.3785 72.9113 67.4896C73.3571 67.6393 73.8297 67.6938 74.2981 67.6495C74.9314 67.5899 75.5478 67.4121 76.115 67.1256C77.3049 66.5549 78.409 65.5488 79.4275 64.1073ZM91.3375 49.5176C91.3517 49.3613 91.3142 49.2047 91.2308 49.0715C91.1474 48.9383 91.0225 48.8358 90.8752 48.7797C90.5671 48.6518 90.1509 48.7444 89.6269 49.0576C88.9178 49.5455 88.2905 50.1416 87.7679 50.8238C86.8641 51.9828 86.086 53.2336 85.4468 54.5555C85.2473 54.9278 85.0397 55.3205 84.8238 55.7338C84.6359 56.0905 84.4332 56.489 84.2108 56.9318C83.9883 57.3745 83.7707 57.8321 83.5532 58.2995C84.5611 58.065 85.5232 57.6669 86.4009 57.1212C87.3272 56.5601 88.1701 55.8728 88.9051 55.0795C89.6276 54.2994 90.2223 53.4112 90.6676 52.4474C91.1037 51.5314 91.3324 50.5312 91.3375 49.5176Z" fill="#F2948D"/>
<path d="M88.4552 63.9794C88.3606 64.2764 88.3353 64.5911 88.3811 64.8994C88.402 65.022 88.4668 65.133 88.5636 65.2117C88.6605 65.2904 88.7827 65.3315 88.9076 65.3274C89.0858 65.3534 89.2675 65.3196 89.4243 65.2314C89.5896 65.1522 89.7414 65.0476 89.8742 64.9215C90.2873 64.4912 90.6421 64.0091 90.9297 63.4874C91.2733 62.8896 91.5947 62.2894 91.8963 61.6917C91.9828 61.4924 92.0767 61.4211 92.1756 61.4776C92.2745 61.5342 92.2769 61.6695 92.1756 61.8835C92.0322 62.1836 91.8518 62.5551 91.6392 62.9954C91.4192 63.4461 91.1638 63.8787 90.8753 64.2893C90.6035 64.6851 90.282 65.0447 89.9187 65.3594C89.6129 65.6368 89.2152 65.7927 88.8013 65.7972C88.4686 65.8202 88.1389 65.7213 87.8743 65.5193C87.6622 65.3384 87.5126 65.0957 87.4467 64.8256C87.3741 64.531 87.359 64.2254 87.4022 63.9252C87.4476 63.6139 87.5306 63.3091 87.6494 63.0175L89.0164 59.5294C89.0586 59.4423 89.0794 59.3466 89.0773 59.25C89.0751 59.1533 89.05 59.0586 89.004 58.9735C88.9425 58.8561 88.8748 58.742 88.8013 58.6316L89.9829 58.6094C90.3265 58.6094 90.5169 58.6709 90.5515 58.7914C90.5753 58.9884 90.5346 59.1877 90.4353 59.3597L88.7049 63.3595C88.6797 63.4459 88.6431 63.5286 88.5962 63.6055C88.5665 63.6768 88.5393 63.7481 88.5121 63.8195C88.4849 63.8908 88.4701 63.9572 88.4552 63.9794ZM91.4884 56.8457C91.4445 57.0891 91.3148 57.3089 91.1225 57.4656C90.9384 57.6272 90.7005 57.7148 90.4551 57.7116C90.3458 57.7176 90.2366 57.6985 90.1358 57.6559C90.0351 57.6132 89.9456 57.5481 89.8742 57.4656C89.803 57.3803 89.7509 57.2809 89.7215 57.174C89.6921 57.0671 89.686 56.9551 89.7036 56.8457C89.7456 56.6016 89.8757 56.3811 90.0695 56.2258C90.2529 56.0648 90.4898 55.9771 90.7344 55.9798C90.8455 55.9739 90.9565 55.9929 91.0592 56.0355C91.1619 56.0781 91.2537 56.1431 91.3277 56.2258C91.4027 56.3106 91.4563 56.4119 91.4843 56.5214C91.5122 56.6309 91.5136 56.7454 91.4884 56.8555V56.8457Z" fill="#F2948D"/>
<path d="M99.893 61.8835C99.72 62.255 99.5198 62.6633 99.2923 63.1135C99.0656 63.5562 98.807 63.9821 98.5186 64.3877C98.2522 64.7593 97.9334 65.0907 97.5718 65.3717C97.2615 65.6234 96.8746 65.763 96.4743 65.7677C96.2459 65.7713 96.0215 65.708 95.8291 65.5857C95.6359 65.4558 95.4895 65.2679 95.4113 65.0494C95.3101 64.7722 95.2623 64.4784 95.2704 64.1835C95.2798 63.79 95.3524 63.4005 95.4855 63.0298C95.3009 63.3578 95.0965 63.6858 94.8724 64.0138C94.6598 64.3249 94.4226 64.6185 94.163 64.892C93.9317 65.1398 93.6682 65.3557 93.3793 65.534C93.1415 65.6867 92.8663 65.7717 92.5834 65.78C92.4575 65.7782 92.3319 65.7675 92.2076 65.748C92.0678 65.7247 91.9331 65.6772 91.8096 65.6078C91.6732 65.5307 91.5525 65.4289 91.4537 65.3077C91.3391 65.1647 91.2618 64.9957 91.2287 64.8157C91.1865 64.5976 91.1798 64.3742 91.2089 64.154C91.237 63.9377 91.291 63.7254 91.3696 63.5218C91.4465 63.3155 91.5399 63.1156 91.6489 62.9241C91.7544 62.7322 91.8582 62.5354 91.9604 62.3337C91.887 62.3341 91.8153 62.3117 91.7552 62.2697C91.691 62.2279 91.6959 62.1344 91.7676 61.9918C91.8412 61.8755 91.9056 61.7538 91.9604 61.6277C92.0181 61.4998 92.0824 61.3719 92.1532 61.244L92.7984 60.0017C93.0135 59.5885 93.1989 59.2195 93.3571 58.8898C93.4262 58.7417 93.5427 58.6206 93.6883 58.5455C93.8442 58.4783 94.0129 58.4456 94.1827 58.4495H95.4954C95.3736 58.5285 95.2587 58.6173 95.1518 58.7152C95.0407 58.8189 94.9366 58.9299 94.8403 59.0473C94.7174 59.1954 94.6058 59.3524 94.5066 59.5171C94.3929 59.7041 94.2594 59.9476 94.1185 60.2551C93.9191 60.6257 93.7403 60.9824 93.582 61.3251C93.4238 61.6252 93.273 61.9327 93.1297 62.2451C92.9863 62.5575 92.8652 62.8158 92.7638 63.0151C92.5424 63.4517 92.397 63.9224 92.3337 64.4074C92.2828 64.6785 92.3414 64.9587 92.4968 65.1872C92.6328 65.3372 92.8355 65.3594 93.1074 65.2511C93.4713 65.0725 93.7886 64.8123 94.0344 64.491C94.3646 64.1062 94.6623 63.6948 94.9243 63.2611C95.2193 62.7904 95.5028 62.3025 95.7747 61.7974C96.0466 61.2907 96.3086 60.7864 96.5583 60.2895C96.808 59.7926 97.0354 59.3252 97.2356 58.8972C97.304 58.746 97.4216 58.6221 97.5694 58.5455C97.7292 58.477 97.9022 58.4442 98.0761 58.4495H99.2355C99.0773 58.5774 98.9438 58.6955 98.8276 58.8037C98.7035 58.9209 98.5917 59.0503 98.4939 59.1899C98.3706 59.3678 98.2591 59.5535 98.1602 59.7459C98.0464 59.9689 97.9105 60.2444 97.7523 60.5724C97.5941 60.8725 97.4408 61.1849 97.29 61.5072C97.1392 61.8294 96.9959 62.1443 96.8599 62.4518C96.7239 62.7593 96.6127 63.0446 96.5064 63.3103C96.4187 63.5278 96.3532 63.7536 96.3111 63.9843C96.2122 64.4443 96.2147 64.769 96.3111 64.9682C96.3456 65.0492 96.4002 65.1202 96.4699 65.1744C96.5395 65.2286 96.6218 65.2643 96.7091 65.2782C97.0035 65.2633 97.2823 65.1417 97.4927 64.9363C97.7821 64.6799 98.0386 64.3891 98.2566 64.0704C98.5118 63.6986 98.7453 63.3126 98.9561 62.9142C99.1761 62.4936 99.3813 62.0902 99.5667 61.7064C99.6532 61.5195 99.7496 61.4604 99.8584 61.5023C99.9672 61.5441 99.9944 61.6695 99.893 61.8835Z" fill="#F2948D"/>
<path d="M104.001 53.6257C104.496 52.9123 104.99 52.563 105.44 52.5753H105.554C105.702 52.5918 105.849 52.6172 105.994 52.6515C106.146 52.6836 106.304 52.6836 106.456 52.6515C106.144 52.9863 105.853 53.3404 105.586 53.7118C105.205 54.2185 104.789 54.8031 104.338 55.4657C103.886 56.1282 103.428 56.8375 102.963 57.5935C102.497 58.3511 102.085 59.0891 101.727 59.8074C101.446 60.3679 101.194 60.9427 100.973 61.5293C100.755 62.0866 100.589 62.6631 100.479 63.2512C100.39 63.7037 100.39 64.169 100.479 64.6214C100.507 64.7917 100.588 64.9488 100.712 65.0699C100.836 65.1911 100.995 65.27 101.166 65.2954C101.641 65.3938 102.257 64.9838 103.015 64.0655C103.347 63.6654 103.647 63.2393 103.91 62.7912C104.177 62.3466 104.417 61.8866 104.629 61.4137C104.765 61.0824 104.865 60.7377 104.928 60.3855C104.987 60.096 104.991 59.7983 104.941 59.5073C104.905 59.2752 104.782 59.0653 104.597 58.9194C104.364 58.7715 104.084 58.7145 103.811 58.7595C103.689 58.7811 103.564 58.7584 103.458 58.6955C103.379 58.6389 103.346 58.5774 103.361 58.5135C103.376 58.4495 103.443 58.3929 103.564 58.3413C103.744 58.2934 103.933 58.2934 104.113 58.3413C104.461 58.3829 104.794 58.5115 105.079 58.7152C105.33 58.9005 105.534 59.1425 105.673 59.4212C105.816 59.7084 105.9 60.0212 105.92 60.3412C105.942 60.6816 105.917 61.0234 105.846 61.3571C105.74 61.8287 105.585 62.2879 105.383 62.7273C105.177 63.1821 104.921 63.6128 104.619 64.0113C104.321 64.4001 103.97 64.7461 103.576 65.0396C103.205 65.3235 102.781 65.5308 102.328 65.6496C101.825 65.8082 101.296 65.8659 100.771 65.8194C100.407 65.7871 100.062 65.6455 99.7818 65.4135C99.5436 65.1947 99.3817 64.906 99.3195 64.5894C99.2487 64.231 99.2639 63.861 99.364 63.5095C99.4646 63.1375 99.5901 62.7726 99.7397 62.4173C99.9045 62.0188 100.094 61.5982 100.308 61.1554C100.061 61.6252 99.8287 62.068 99.6013 62.4813C99.3739 62.8945 99.1588 63.2709 98.966 63.6055C98.7732 63.94 98.5927 64.2253 98.4296 64.4615C98.3102 64.6357 98.1771 64.8002 98.0316 64.9535C97.9451 65.0248 97.8759 65.0223 97.8264 64.9535C97.8025 64.9112 97.7927 64.8624 97.7985 64.8142C97.8043 64.766 97.8253 64.7209 97.8586 64.6853C98.1675 64.2738 98.4475 63.8415 98.6966 63.3914C99.013 62.8429 99.3442 62.2353 99.6854 61.5736C100.026 60.9119 100.402 60.2059 100.78 59.4655C101.159 58.725 101.537 57.9895 101.91 57.2835C102.283 56.5775 102.652 55.8961 102.995 55.2615C103.303 54.6997 103.639 54.1538 104.001 53.6257Z" fill="#F2948D"/>
<path d="M114.557 61.7974C114.47 61.9967 114.33 62.3115 114.137 62.7396C113.933 63.1865 113.692 63.6159 113.417 64.0236C113.137 64.4428 112.8 64.8218 112.416 65.1503C112.079 65.4599 111.639 65.635 111.18 65.6422C110.896 65.651 110.614 65.5981 110.352 65.4873C110.146 65.395 109.96 65.2629 109.806 65.0986C109.521 65.3144 109.211 65.4938 108.881 65.6324C108.582 65.7591 108.259 65.8179 107.935 65.8046C107.572 65.8153 107.219 65.6897 106.946 65.4528C106.702 65.2152 106.537 64.9086 106.474 64.5747C106.397 64.1682 106.397 63.7512 106.474 63.3447C106.551 62.8624 106.688 62.3914 106.881 61.9426C107.099 61.4537 107.365 60.988 107.677 60.5527C107.974 60.131 108.316 59.7433 108.698 59.3966C109.038 59.0869 109.418 58.8246 109.828 58.6168C110.178 58.4326 110.569 58.3403 110.965 58.3487C111.321 58.3326 111.668 58.4552 111.934 58.6906C112.185 58.9333 112.354 59.2481 112.416 59.5909C112.496 60.0033 112.501 60.4267 112.429 60.8405C112.352 61.3233 112.214 61.7945 112.018 62.2427C111.59 63.1944 110.977 64.0522 110.214 64.7665C110.311 64.9448 110.458 65.0906 110.638 65.186C110.818 65.2813 111.022 65.322 111.225 65.3028C111.594 65.2922 111.944 65.1386 112.201 64.8748C112.528 64.5695 112.813 64.2239 113.052 63.8465C113.307 63.4517 113.537 63.0409 113.739 62.6166C113.94 62.2033 114.105 61.8688 114.233 61.6129C114.242 61.5881 114.256 61.5654 114.274 61.5462C114.292 61.5271 114.314 61.512 114.339 61.5018C114.363 61.4916 114.39 61.4866 114.416 61.4871C114.443 61.4876 114.469 61.4936 114.493 61.5047C114.606 61.5416 114.629 61.64 114.557 61.7974ZM111.418 59.0153C111.162 58.9614 110.896 58.9961 110.664 59.1137C110.36 59.257 110.084 59.4518 109.848 59.6893C109.555 59.9793 109.289 60.2946 109.052 60.6314C108.788 61.0065 108.558 61.4041 108.365 61.8196C108.165 62.224 107.996 62.6425 107.858 63.0717C107.747 63.4158 107.672 63.7702 107.633 64.1294C107.6 64.391 107.622 64.6565 107.697 64.9092C107.725 65.0049 107.778 65.0918 107.85 65.1612C107.922 65.2306 108.011 65.2803 108.108 65.3052C108.337 65.3615 108.579 65.339 108.795 65.2413C109.077 65.1279 109.338 64.9692 109.569 64.7714C109.461 64.6054 109.377 64.4248 109.321 64.2352C109.267 64.0698 109.238 63.8974 109.235 63.7235C109.244 63.4981 109.306 63.278 109.418 63.0815C109.476 63.003 109.55 62.9378 109.636 62.8902C109.721 62.8427 109.816 62.8138 109.913 62.8057C110.011 62.7975 110.109 62.8102 110.202 62.843C110.294 62.8757 110.378 62.9277 110.449 62.9954C110.567 63.1155 110.633 63.2774 110.631 63.4456C110.635 63.4848 110.635 63.5244 110.631 63.5636C110.623 63.6028 110.613 63.6414 110.599 63.6792C110.849 63.3115 111.072 62.9259 111.264 62.5256C111.466 62.1203 111.632 61.698 111.759 61.2636C111.865 60.9156 111.931 60.5566 111.954 60.1936C111.976 59.9281 111.939 59.661 111.845 59.4113C111.81 59.3167 111.753 59.2316 111.679 59.1628C111.604 59.0941 111.515 59.0435 111.418 59.0153Z" fill="#F2948D"/>
<path d="M119.867 58.6094C119.852 58.6235 119.841 58.6404 119.834 58.6591C119.827 58.6777 119.824 58.6977 119.825 58.7176C119.738 58.9636 119.62 59.3449 119.469 59.8295C119.318 60.3141 119.128 60.8381 118.898 61.4014C118.668 61.9647 118.403 62.5354 118.114 63.1233C117.841 63.6702 117.509 64.1865 117.125 64.6632C116.797 65.0815 116.392 65.4338 115.931 65.7013C115.516 65.9412 115.026 66.0176 114.557 65.9153C114.415 65.9024 114.279 65.8521 114.164 65.7694C114.048 65.6868 113.957 65.575 113.899 65.4454C113.787 65.1524 113.743 64.8378 113.771 64.5255C113.801 64.1262 113.873 63.7313 113.986 63.3472C114.108 62.9191 114.248 62.4985 114.406 62.0852C114.29 62.2722 114.181 62.346 114.072 62.3091C113.964 62.2722 113.946 62.1787 114.018 62.0213C114.09 61.907 114.155 61.7888 114.213 61.6671C114.27 61.5465 114.334 61.4211 114.406 61.2932C114.516 61.0547 114.606 60.8079 114.676 60.5552C114.75 60.2827 114.797 60.0033 114.814 59.7213C114.832 59.4846 114.814 59.2465 114.76 59.0153C114.749 58.9341 114.717 58.8572 114.666 58.7931C114.615 58.7289 114.547 58.6798 114.47 58.6512C114.629 58.6217 114.779 58.5947 114.92 58.5651C115.037 58.5371 115.156 58.519 115.276 58.511C115.36 58.5108 115.443 58.5 115.523 58.479L115.912 58.4471C115.998 58.4377 116.085 58.4567 116.159 58.5012C116.197 58.535 116.228 58.5762 116.25 58.6223C116.272 58.6683 116.285 58.7183 116.287 58.7693C116.307 58.9648 116.307 59.1618 116.287 59.3572C116.261 59.7947 116.189 60.2283 116.072 60.6511C115.965 61.0908 115.829 61.5231 115.664 61.945L115.276 63.0151C115.158 63.3363 115.061 63.665 114.987 63.999C114.927 64.2553 114.901 64.5183 114.91 64.7813C114.904 64.8673 114.925 64.9532 114.969 65.0274C115.013 65.1017 115.079 65.1608 115.158 65.197C115.285 65.2537 115.424 65.2784 115.562 65.2689C115.701 65.2595 115.836 65.2162 115.954 65.1429C116.265 64.9601 116.535 64.7166 116.75 64.4271C117.038 64.0501 117.294 63.6494 117.513 63.2291C117.771 62.7418 118.004 62.2418 118.21 61.731C118.048 61.3854 117.954 61.0122 117.931 60.6314C117.896 60.2818 117.932 59.9287 118.037 59.5934C118.144 59.19 118.347 58.8184 118.631 58.511C118.822 58.3006 119.062 58.1394 119.33 58.0412C119.412 58.0086 119.501 57.9983 119.588 58.0113C119.674 58.0243 119.756 58.0601 119.825 58.115C119.956 58.2109 119.966 58.3806 119.867 58.6094Z" fill="#F2948D"/>
<path d="M67.767 135.481C50.3669 133.355 34.5069 124.499 23.6173 110.828C23.584 110.783 23.542 110.746 23.4939 110.718C23.4457 110.69 23.3924 110.672 23.337 110.665C23.2816 110.658 23.2254 110.662 23.1717 110.677C23.1179 110.692 23.0678 110.717 23.0242 110.752C22.9807 110.787 22.9446 110.83 22.9182 110.879C22.8917 110.928 22.8755 110.981 22.8704 111.037C22.8653 111.092 22.8715 111.148 22.8885 111.201C22.9056 111.254 22.9332 111.303 22.9696 111.345C28.3797 118.106 35.0426 123.771 42.5972 128.035C50.3219 132.413 58.8425 135.222 67.6656 136.3H67.7176C67.8211 136.297 67.9197 136.255 67.9939 136.183C68.0682 136.112 68.1128 136.015 68.119 135.912C68.1252 135.809 68.0925 135.707 68.0274 135.627C67.9623 135.547 67.8694 135.494 67.767 135.479V135.481Z" fill="#F2948D"/>
<path d="M129.411 110.471C129.369 110.437 129.32 110.412 129.267 110.398C129.215 110.383 129.16 110.378 129.106 110.385C129.052 110.391 129 110.408 128.952 110.435C128.905 110.462 128.863 110.497 128.83 110.54C117.719 124.562 101.839 133.417 84.1169 135.523C84.0146 135.538 83.9218 135.591 83.8566 135.671C83.7913 135.751 83.7585 135.852 83.7643 135.955C83.7702 136.058 83.8144 136.155 83.8883 136.227C83.9622 136.299 84.0605 136.341 84.1638 136.345H84.2133C102.075 134.217 118.357 125.119 129.48 111.049C129.514 111.007 129.539 110.958 129.554 110.906C129.568 110.854 129.573 110.8 129.566 110.746C129.56 110.692 129.543 110.64 129.516 110.593C129.49 110.546 129.454 110.505 129.411 110.471Z" fill="#F2948D"/>
<path d="M84.4432 2.92727C100.933 4.96362 116.072 13.0302 126.917 25.5583C126.956 25.6031 127.004 25.639 127.058 25.6636C127.112 25.6882 127.171 25.701 127.231 25.701C127.33 25.7008 127.426 25.665 127.5 25.6001C127.583 25.5283 127.635 25.4269 127.643 25.3177C127.651 25.2086 127.616 25.1005 127.545 25.0171C116.565 12.3342 101.237 4.16853 84.5421 2.10813C84.4865 2.09828 84.4296 2.0998 84.3746 2.1126C84.3197 2.12539 84.268 2.14918 84.2226 2.18253C84.1772 2.21588 84.1391 2.25808 84.1106 2.30655C84.0822 2.35503 84.064 2.40877 84.0571 2.46449C84.0502 2.52021 84.0548 2.57674 84.0705 2.63064C84.0863 2.68453 84.113 2.73466 84.1489 2.77797C84.1848 2.82128 84.2292 2.85685 84.2794 2.88252C84.3295 2.90819 84.3844 2.92342 84.4407 2.92727H84.4432Z" fill="#F2948D"/>
<path d="M67.6657 2.10813C51.2154 4.14679 36.0849 12.1099 25.1326 24.4932C25.0963 24.5337 25.0685 24.5811 25.0507 24.6324C25.0328 24.6838 25.0255 24.7381 25.0289 24.7924C25.0323 24.8466 25.0466 24.8996 25.0707 24.9483C25.0949 24.997 25.1286 25.0405 25.1697 25.0761C25.2104 25.1119 25.2578 25.1393 25.3092 25.1568C25.3606 25.1743 25.4149 25.1816 25.4691 25.1781C25.5233 25.1747 25.5763 25.1607 25.625 25.1369C25.6738 25.113 25.7173 25.0798 25.7531 25.0392C36.5725 12.8017 51.5226 4.93266 67.7769 2.91989C67.8815 2.90135 67.975 2.84359 68.0382 2.75851C68.1013 2.67343 68.1292 2.5675 68.1162 2.46253C68.1033 2.35757 68.0503 2.26155 67.9683 2.19425C67.8864 2.12695 67.7816 2.09348 67.6755 2.10075L67.6657 2.10813Z" fill="#F2948D"/>
<path d="M76.2386 0C75.8191 0.000486804 75.4092 0.124746 75.0607 0.357065C74.7122 0.589384 74.4407 0.919328 74.2806 1.30517C74.1205 1.69102 74.079 2.11544 74.1614 2.52476C74.2437 2.93407 74.4461 3.30991 74.7431 3.60474C75.0401 3.89956 75.4182 4.10014 75.8297 4.1811C76.2413 4.26206 76.6677 4.21977 77.055 4.05957C77.4424 3.89938 77.7733 3.62848 78.006 3.28112C78.2386 2.93377 78.3625 2.52556 78.362 2.10813C78.3607 1.54857 78.1364 1.01237 77.7384 0.617157C77.3403 0.221947 76.8009 -1.51667e-06 76.2386 0ZM76.2386 3.39219C75.9834 3.39219 75.7339 3.31688 75.5217 3.17579C75.3095 3.03469 75.1441 2.83415 75.0465 2.59952C74.9488 2.36489 74.9232 2.1067 74.973 1.85762C75.0228 1.60854 75.1457 1.37974 75.3262 1.20016C75.5066 1.02058 75.7366 0.898283 75.9869 0.848737C76.2372 0.799191 76.4966 0.82462 76.7324 0.921808C76.9682 1.019 77.1697 1.18358 77.3115 1.39474C77.4533 1.6059 77.529 1.85416 77.529 2.10813C77.529 2.27675 77.4956 2.44373 77.4308 2.59952C77.3659 2.75531 77.2709 2.89686 77.151 3.0161C77.0312 3.13534 76.889 3.22992 76.7324 3.29445C76.5759 3.35898 76.4081 3.39219 76.2386 3.39219Z" fill="#F2948D"/>
<path d="M76.2387 133.781C75.8191 133.781 75.4088 133.904 75.0597 134.136C74.7105 134.367 74.4383 134.697 74.2774 135.082C74.1165 135.468 74.0741 135.893 74.1557 136.302C74.2372 136.712 74.4391 137.088 74.7356 137.383C75.0321 137.679 75.41 137.88 75.8215 137.962C76.233 138.043 76.6596 138.002 77.0473 137.842C77.435 137.682 77.7664 137.412 77.9995 137.065C78.2327 136.718 78.3572 136.309 78.3572 135.892C78.3565 135.333 78.1332 134.797 77.7361 134.401C77.339 134.005 76.8006 133.783 76.2387 133.781ZM76.2387 137.176C75.9835 137.176 75.734 137.101 75.5218 136.96C75.3096 136.818 75.1442 136.618 75.0465 136.383C74.9489 136.149 74.9233 135.89 74.9731 135.641C75.0229 135.392 75.1458 135.163 75.3262 134.984C75.5067 134.804 75.7366 134.682 75.9869 134.632C76.2372 134.583 76.4967 134.608 76.7325 134.706C76.9683 134.803 77.1698 134.967 77.3116 135.178C77.4534 135.39 77.5291 135.638 77.5291 135.892C77.5284 136.232 77.3922 136.558 77.1504 136.799C76.9085 137.04 76.5807 137.175 76.2387 137.176Z" fill="#F2948D"/>
<path d="M130.353 35.7029V35.7185C130.353 35.7185 130.355 35.7081 130.353 35.7029Z" fill="#F2948D"/>
<path d="M149.743 80.0006C146.502 80.4041 144.772 83.8504 143.042 86.2488V86.2365L143.027 86.2561L143.049 86.2291L143.017 86.266L143.032 86.2488L142.972 86.3226L143.009 86.2758C142.992 86.3007 142.973 86.3245 142.953 86.3472L142.903 86.4087L142.915 86.3939C142.193 87.173 141.538 88.0115 140.958 88.9005C141.872 85.4317 142.499 81.894 142.831 78.323C142.831 78.3525 142.831 78.382 142.831 78.4116C142.831 78.3279 142.849 78.2418 142.856 78.1656C142.857 78.177 142.857 78.1886 142.856 78.2C142.915 77.6244 142.97 77.0488 143.007 76.4781C143.838 75.7401 144.93 75.3859 145.795 74.6824L145.899 74.6036H145.887L145.934 74.5692C147.951 73.0933 150.008 71.0934 150.445 68.5425C150.665 66.7443 149.021 65.2216 147.521 66.7492C145.585 69.3468 144.784 72.5619 143.071 75.317C143.256 71.9883 143.161 68.65 142.784 65.3372C146.134 62.1959 149.706 57.591 148.838 52.7524C148.515 51.6602 147.355 50.1966 146.183 51.1953C144.404 52.8902 144.676 55.6723 144.206 57.9083L144.176 58.1076V58.0904C144.176 58.1174 144.176 58.1445 144.176 58.1715C144.176 58.1986 144.176 58.2232 144.164 58.2503C144.164 58.2503 144.164 58.2675 144.164 58.2749C143.692 60.3166 143.558 62.501 142.681 64.4246C142.251 60.9807 141.939 57.5148 140.715 54.248C146.811 43.8796 141.044 36.1899 139.554 42.8538C139.306 46.2558 140.735 49.5398 140.295 52.9541C139.403 49.6751 137.556 46.8044 135.732 43.978C135.791 43.732 135.905 43.5204 135.979 43.2867C135.979 43.2867 135.979 43.304 135.979 43.3138C139.86 32.5296 131.982 31.1644 134.694 40.9056C134.694 40.9056 134.694 40.8933 134.694 40.8859L134.708 40.9621V40.9326C134.709 40.9465 134.709 40.9605 134.708 40.9744C134.708 40.9744 134.708 40.9892 134.708 40.9966C134.899 41.8575 135.272 42.6718 135.433 43.5376C134.072 41.7832 132.599 40.117 131.025 38.549C130.929 37.8857 130.916 37.213 130.988 36.5466V36.5614C130.988 36.5614 130.988 36.5417 130.988 36.5319C131.085 34.1507 132.274 27.6763 128.459 28.001H128.477L128.417 28.0231H128.442C126.294 29.686 128.427 33.4742 129.045 35.5848C129.038 35.573 129.033 35.5607 129.028 35.5479C129.067 35.6488 129.107 35.7521 129.149 35.8529C129.149 35.8308 129.132 35.8087 129.122 35.789L129.184 35.939L129.156 35.8751C129.228 36.0522 129.295 36.2318 129.367 36.4089C129.357 36.388 129.349 36.3666 129.342 36.3449C129.458 36.645 129.589 36.9427 129.71 37.2403C128.533 35.9636 127.016 35.0855 125.594 34.1113C123.657 32.1345 121.338 30.5674 118.777 29.504C116.967 28.7955 113.781 30.1165 116.08 32.0549C118.304 33.8776 121.444 33.6956 124.146 34.1532C124.566 34.1236 124.944 34.5098 125.327 34.4114C127.812 35.8628 129.831 37.8553 131.769 39.9511C129.114 38.4334 122.756 37.7028 121.491 41.2032C122.265 42.7726 124.21 42.6791 125.676 42.2979C127.913 41.924 130.027 40.6227 132.269 40.5095C133.01 41.3606 133.73 42.2314 134.451 43.0998L134.409 43.053C135.274 44.1792 136.05 45.37 136.731 46.615C134.068 44.5314 129.997 43.8673 126.721 44.6667C123.619 45.6507 124.657 48.4181 127.606 48.1573H127.737C139.19 47.0012 137.069 44.5659 141.197 58.2945C139.128 54.863 135.423 51.8668 131.228 52.0267C129.831 52.349 128.83 53.5642 130.182 54.6785L130.158 54.6465L130.192 54.6908C132.699 58.3314 138.014 57.1679 141.393 59.3449C141.907 63.3127 142.505 67.2953 142.515 71.3049C141.032 67.711 133.749 60.2723 129.831 63.7801C129.79 63.8039 129.759 63.8428 129.746 63.8887C129.732 63.9346 129.737 63.9838 129.76 64.0261C129.732 64.3533 129.96 64.6411 130.064 64.9412C130.064 64.9412 130.064 64.9633 130.064 64.9732C131.856 69.5338 137.927 68.9287 141.408 71.5091L141.655 71.7059C141.965 71.9345 142.251 72.1933 142.51 72.4783C142.481 76.0376 142.171 79.5891 141.583 83.1001C141.437 82.6868 141.264 82.2834 141.089 81.8702L141.104 81.9071C141.084 81.8529 141.061 81.8013 141.037 81.7472C141.037 81.7644 141.054 81.7816 141.061 81.8013C137.981 70.6039 126.586 70.3898 132.62 77.6441C135.398 79.6686 138.424 81.3339 141.049 83.565L140.982 83.5134C141.101 83.6037 141.211 83.705 141.311 83.8159C140.965 88.0445 139.334 92.1378 137.823 96.0859C136.97 82.3867 126.85 80.7288 131.225 89.3925C133.24 92 135.885 94.2139 137.23 97.3626C136.943 98.0923 136.629 98.8106 136.288 99.5174C135.949 100.223 135.581 100.915 135.191 101.594C134.8 102.273 134.385 102.934 133.955 103.586C133.524 104.238 133.107 104.885 132.632 105.507C132.157 106.13 131.594 106.868 131.085 107.463C130.837 107.751 130.892 107.955 131.01 108.066C131.129 108.176 131.317 108.228 131.752 107.692C132.096 107.271 132.926 106.294 133.265 105.793C133.512 105.429 133.717 105.133 134.006 104.752C134.006 104.752 134.051 104.696 134.061 104.696C148.312 105.187 149.026 90.4749 138.263 100.292L138.236 100.314L138.167 100.378L138.112 100.425L138.135 100.403C137.146 101.188 136.244 102.041 135.302 102.863C136.268 101.239 137.015 99.4978 137.774 97.7709C137.845 97.7376 137.901 97.6798 137.932 97.6082C137.963 97.5366 137.966 97.4563 137.942 97.3822C138.931 95.0822 139.798 92.733 140.547 90.3494C144.737 89.1637 151.347 87.5771 151.993 82.431C152.057 81.1765 151.095 79.8727 149.743 80.0006ZM149.743 66.8328C151.35 70.4341 146.475 73.8337 143.729 75.3687C145.84 72.5841 148.178 69.8167 149.439 66.5131C149.554 66.6075 149.658 66.7148 149.748 66.8328H149.743ZM144.438 73.2433C145.227 72.129 145.627 70.8425 146.114 69.5855L146.129 69.551V69.5707C146.846 68.3604 147.437 66.3286 149.14 66.3728C148.566 68.0431 147.578 69.5092 146.589 70.9605L146.614 70.9261C146.53 71.0491 146.443 71.1721 146.366 71.2951C146.357 71.3055 146.348 71.3171 146.342 71.3295L146.366 71.2951C146.348 71.3187 146.332 71.3434 146.317 71.3689L146.342 71.3369L146.297 71.4058L146.319 71.3689C146.023 71.8067 145.706 72.2298 145.417 72.6726L145.442 72.6357C144.747 73.4795 144.156 74.397 143.442 75.226C143.783 74.5618 144.085 73.8903 144.443 73.2433H144.438ZM147.234 51.5471V51.5618C147.234 51.461 147.249 51.3626 147.259 51.2617C147.321 51.2821 147.38 51.3129 147.432 51.3527C150.524 54.5899 146.347 61.1136 143.758 63.6325C145.511 59.8221 146.858 55.7387 147.239 51.5471H147.234ZM143.526 63.0618C144.646 60.2994 144.297 52.1399 146.987 51.2543C146.804 54.1275 145.936 56.8949 145.138 59.645C144.559 61.0791 144.082 62.5821 143.276 63.9105C143.374 63.6321 143.456 63.3489 143.524 63.0618H143.526ZM135.252 42.1527C134.758 39.9216 133.299 36.4605 135.287 34.6968C135.198 37.2698 135.181 39.8626 135.326 42.4356C135.302 42.3446 135.277 42.2487 135.25 42.1552L135.252 42.1527ZM122.445 33.3832C120.779 33.0757 115.358 32.7486 115.944 30.4781C118.505 30.8397 120.715 32.4214 123.058 33.4422C122.858 33.4324 122.645 33.4127 122.442 33.3857L122.445 33.3832ZM123.088 32.847C120.734 31.8458 118.356 29.9713 115.734 30.0993C118.675 28.5446 121.54 31.5014 123.792 33.1077C123.557 33.0167 123.318 32.9429 123.085 32.8494L123.088 32.847ZM129.947 36.5368C129.737 35.9882 129.535 35.4397 129.31 34.896V34.9133L129.273 34.8198L129.25 34.7632C129.25 34.778 129.25 34.7927 129.268 34.8099L129.248 34.7583C129.233 34.7239 129.221 34.6894 129.208 34.6574V34.682C128.647 32.847 127.117 29.9935 128.58 28.3847C128.65 28.6307 128.776 28.8373 128.828 29.0759V29.1005C128.969 30.6527 129.104 32.2 129.569 33.703V33.671C129.727 34.3303 129.787 35.0117 129.992 35.6586C129.992 35.6586 129.992 35.6414 129.992 35.634C129.991 35.6471 129.991 35.6603 129.992 35.6734C130.11 36.2226 130.193 36.7789 130.239 37.3387C130.145 37.073 130.054 36.8 129.945 36.5343L129.947 36.5368ZM130.499 36.0965L130.476 36.2318C130.476 36.2096 130.476 36.1875 130.489 36.1653C130.489 36.1899 130.489 36.217 130.476 36.2416C130.444 36.0645 130.4 35.8874 130.358 35.7127C130.111 34.9083 129.97 34.0769 129.747 33.2651C129.134 31.676 129.391 29.9172 128.791 28.3453C128.865 28.3343 128.941 28.3343 129.015 28.3453C131.596 29.841 130.469 33.6735 130.499 36.153C130.497 36.1334 130.496 36.1137 130.496 36.094L130.499 36.0965ZM130.835 40.4234C128.914 40.8957 127.082 41.6927 125.134 42.0691H125.097C123.918 42.3151 122.559 42.3323 121.815 41.2278C123.068 41.3975 124.388 41.1589 125.634 40.9523H125.572C126.37 40.8145 127.171 40.7186 127.972 40.6005H128.024C129.013 40.3545 130.036 40.175 131.06 40.3545L130.835 40.4234ZM131.349 40.0913C129.866 39.9093 128.412 40.1971 126.942 40.3053L126.998 40.293C125.288 40.4406 123.56 41.031 121.839 40.8121C121.912 40.6829 121.995 40.5596 122.087 40.4431C124.61 38.2095 128.709 38.6769 131.539 40.0913H131.349ZM135.626 34.6796C135.66 34.6831 135.694 34.6889 135.727 34.6968C135.876 34.747 136.007 34.8372 136.108 34.9575C137.514 37.4174 136.434 40.6965 135.705 43.2572C135.699 43.2673 135.695 43.278 135.692 43.2892C135.581 40.4333 135.581 37.5404 135.623 34.6845L135.626 34.6796ZM135.497 46.8388H135.124C132.723 47.1094 130.36 47.7391 127.938 47.84H127.97C127.228 47.8621 126.459 47.8892 125.79 47.5448H125.802L125.775 47.5301C125.367 47.348 125.172 46.9249 125.033 46.524C128.575 47.2226 132.279 45.7589 135.801 46.8216C135.712 46.8487 135.606 46.8437 135.495 46.8462L135.497 46.8388ZM127.107 46.3247C126.714 46.2829 126.324 46.3493 125.93 46.3247H125.982L125.735 46.305H125.76C125.596 46.309 125.433 46.284 125.278 46.2312H125.29L125.258 46.2189C125.178 46.1894 125.095 46.1671 125.011 46.1525C125.022 46.1073 125.039 46.0635 125.06 46.0221C127.443 43.2006 133.826 44.6421 136.431 46.6002C133.381 45.7663 130.222 46.4354 127.105 46.3321L127.107 46.3247ZM141.464 40.6817C145.116 43.6336 142.478 49.6849 140.832 53.1706C141.679 49.0429 141.326 44.8438 141.259 40.6596C141.328 40.6585 141.396 40.6684 141.462 40.6891L141.464 40.6817ZM140.409 48.5238C140.206 47.166 139.887 45.818 139.823 44.4478C139.823 43.1883 139.724 41.368 141.027 40.7162C140.997 44.7405 141.413 48.8117 140.56 52.7696C140.656 51.3527 140.718 49.9358 140.409 48.5238ZM139.563 57.8542C136.323 56.9662 131.183 57.0203 130.002 53.3157C130.496 53.5199 130.872 53.9282 131.398 54.0537H131.376C131.858 54.2333 132.348 54.3907 132.84 54.5457C133.018 54.6096 133.196 54.681 133.374 54.74L133.542 54.7966L133.737 54.8655L133.71 54.8532L133.861 54.9048H133.89L134.271 55.0327H134.298L134.353 55.0499H134.32C135.764 55.5985 137.218 56.1766 138.481 57.0744L138.594 57.1482L138.56 57.1261C139.054 57.4902 139.662 57.6845 140.169 58.0412C139.937 57.9649 139.751 57.9059 139.561 57.8542H139.563ZM133.302 54.4891C132.884 54.3292 132.454 54.2259 132.031 54.0881L131.599 53.9455H131.623L131.347 53.8544H131.369L131.282 53.8249H131.305C131.054 53.7316 130.815 53.6077 130.595 53.4559H130.612C130.445 53.3349 130.263 53.235 130.071 53.1583C130.122 53.0908 130.179 53.0282 130.242 52.9713C133.888 51.119 138.189 54.8409 140.394 57.5787C140.399 57.5875 140.405 57.5957 140.411 57.6033V57.5886L140.424 57.6058L140.567 57.7927L140.619 57.8591L140.703 57.9748C138.365 56.5775 135.977 55.1877 133.299 54.4891H133.302ZM140.701 70.4661C137.373 68.5695 132.15 68.9213 130.383 64.9658C130.281 64.7075 130.158 64.459 130.059 64.1983C131.928 65.5758 134.17 66.2646 136.293 67.1502C137.887 68.2743 139.559 69.3493 141.037 70.6186C140.926 70.5743 140.812 70.5178 140.698 70.4661H140.701ZM134.694 66.0653L134.743 66.0875C133.159 65.3864 131.576 64.7026 130.108 63.7801C130.125 63.753 130.14 63.7235 130.16 63.6965C134.362 61.2809 139.932 67.4822 141.887 70.808C139.807 68.7938 137.366 67.1852 134.691 66.0653H134.694ZM139.435 81.4225C136.728 79.056 131.569 78.0007 131.369 73.8337C134.553 75.9664 137.151 78.8937 139.774 81.6562L139.435 81.4225ZM135.623 76.5519L135.579 76.5125L135.613 76.542L135.556 76.4953H135.569L135.554 76.483L135.576 76.5002L135.517 76.451C134.259 75.3711 133.112 74.1756 131.651 73.3589C131.749 73.2859 131.855 73.2232 131.967 73.172C136.459 72.621 139.076 77.7794 140.399 81.3314C138.973 79.6218 137.247 78.1336 135.623 76.5593V76.5519ZM138.004 101.102C139.91 99.5986 141.835 97.2838 144.475 97.4118C142.584 99.9479 139.217 101.04 136.466 102.447C136.952 101.977 137.465 101.528 138.004 101.102ZM138.251 102.1C140.547 100.87 143.328 99.8372 144.861 97.6528C145.003 97.8905 145.079 98.1612 145.081 98.4375C144.404 102.415 138.686 103.849 135.193 103.793C136.161 103.145 137.182 102.581 138.246 102.105L138.251 102.1ZM136.454 94.7379C134.57 91.5203 129.557 89.0235 130.899 84.7335C132.355 87.2991 133.576 90.0641 135.522 92.3419L135.5 92.3173C136.158 93.2893 136.633 94.3731 136.899 95.5152C136.763 95.252 136.619 94.9912 136.454 94.7379ZM136.419 93.4366C134.496 90.5777 132.743 87.6093 131.169 84.5465C131.351 84.5039 131.54 84.4981 131.725 84.5293C135.999 86.1012 136.844 92.2165 137.435 96.204C137.225 95.2403 136.885 94.3094 136.424 93.4366H136.419ZM142.176 87.9535C144.718 85.619 146.441 79.9736 150.603 80.7386C148.344 84.2095 144.755 86.6227 141.43 88.9891C141.66 88.6275 141.922 88.2905 142.181 87.9535H142.176ZM151.362 82.8418C150.336 86.5563 145.857 88.3372 142.377 89.0629C145.024 87.3016 147.632 85.3411 149.676 82.8787L149.654 82.9033L149.78 82.7533C150.244 82.2295 150.634 81.6453 150.94 81.0166C151.134 81.2748 151.272 81.5704 151.346 81.8846C151.419 82.1987 151.427 82.5247 151.367 82.8418H151.362Z" fill="#F2948D"/>
<path d="M21.0392 36.4978C21.0404 36.4854 21.0404 36.4729 21.0392 36.4605C21.0392 36.4605 21.0367 36.4854 21.0392 36.4978Z" fill="#F2948D"/>
<path d="M21.8351 54.6244C23.1872 53.5101 22.1886 52.2949 20.7894 51.9726C16.587 51.8127 12.879 54.8089 10.8199 58.2404C14.9481 44.5118 12.8296 46.9471 24.2799 48.1032H24.4133C27.3624 48.364 28.3982 45.5941 25.2983 44.6126C22.0229 43.8132 17.9516 44.4773 15.2868 46.5609C15.9673 45.3159 16.7433 44.1251 17.608 42.9989C17.608 43.0137 17.5832 43.0309 17.5684 43.0457C18.2878 42.1773 19.0071 41.3065 19.7487 40.4554C21.9908 40.5686 24.1068 41.8698 26.3415 42.2437C27.8247 42.6176 29.7528 42.7185 30.529 41.1491C29.2609 37.6487 22.9054 38.3793 20.2505 39.897C22.1861 37.8086 24.2057 35.8087 26.6925 34.3573C27.0757 34.4557 27.4539 34.0695 27.8716 34.099C30.5735 33.6415 33.7179 33.8235 35.9402 32.0007C38.2392 30.0623 35.0528 28.7414 33.2408 29.4498H33.2532C30.6914 30.5121 28.3723 32.0793 26.4354 34.0572C25.014 35.0412 23.4962 35.9095 22.3196 37.1862C22.4456 36.8886 22.5668 36.5909 22.6879 36.2908C22.6879 36.3129 22.6706 36.3326 22.6632 36.3548L22.8708 35.821C22.8708 35.8431 22.8535 35.8628 22.8461 35.8849L22.9054 35.7349C22.9054 35.7545 22.8881 35.7767 22.8807 35.7988L22.9994 35.4938L22.9845 35.5307C23.6025 33.4201 25.7359 29.6269 23.5852 27.969H23.6099L23.5506 27.9468H23.5704C19.7561 27.6271 20.9427 34.0966 21.0391 36.4778C21.0391 36.4778 21.0391 36.4974 21.0391 36.5073V36.4925C21.112 37.1588 21.1003 37.8315 21.0045 38.4949C19.4288 40.0622 17.9557 41.7285 16.5944 43.4835C16.7551 42.6176 17.1284 41.8034 17.3187 40.94C17.3187 40.94 17.3187 40.9252 17.3187 40.9179V40.876V40.9056L17.3336 40.8293C17.3348 40.8358 17.3348 40.8425 17.3336 40.849C20.0528 31.1078 12.1696 32.473 16.0481 43.2572V43.2302C16.1124 43.4761 16.2261 43.6852 16.2953 43.9214C14.4611 46.7675 12.6071 49.6308 11.7246 52.9098C11.2747 49.4955 12.7134 46.2115 12.4662 42.8095C10.983 36.1457 5.20847 43.8353 11.3044 54.2037C10.0684 57.4705 9.76929 60.9463 9.3268 64.3803C8.44678 62.4616 8.31576 60.2772 7.84361 58.2306V58.206C7.84361 58.1789 7.84361 58.1543 7.84361 58.1273C7.84361 58.1002 7.84361 58.0732 7.83125 58.0461V58.0633L7.80159 57.8641C7.31955 55.628 7.59394 52.8459 5.824 51.151C4.62756 50.1818 3.47808 51.6578 3.15672 52.7401C2.29895 57.5787 5.86108 62.1836 9.21062 65.3249C8.83334 68.6376 8.73742 71.976 8.92387 75.3047C7.22067 72.5496 6.42222 69.3345 4.47429 66.7369C2.9738 65.2093 1.32993 66.7369 1.55241 68.5302C1.99736 71.0909 4.05406 73.0859 6.0712 74.5569L6.11817 74.5913L6.22199 74.6701C7.08718 75.3736 8.18227 75.718 9.01039 76.4658C9.04994 77.0389 9.10433 77.6145 9.16118 78.1877C9.16118 78.1754 9.16118 78.1656 9.16118 78.1533C9.16118 78.2369 9.17848 78.323 9.1859 78.3992C9.1859 78.3697 9.1859 78.3402 9.1859 78.3107C9.51902 81.8817 10.1465 85.4195 11.0621 88.8882C10.4809 87.9992 9.82512 87.1607 9.10185 86.3816L9.11421 86.3964L9.06477 86.3349C9.045 86.3127 9.02769 86.2881 9.00792 86.2635L9.045 86.3103L8.98567 86.2365L9.0005 86.2537L8.97084 86.2168C8.97804 86.2254 8.98465 86.2344 8.99061 86.2439L8.97578 86.2242V86.2365C7.24539 83.8381 5.515 80.3918 2.27423 79.9883C0.907217 79.8727 -0.0543858 81.1765 -2.12862e-06 82.431C0.647658 87.5771 7.25775 89.1637 11.4453 90.3494C12.1869 92.7331 13.0743 95.0822 14.0532 97.3822C14.0287 97.456 14.032 97.5361 14.0624 97.6076C14.0929 97.6792 14.1485 97.7372 14.2189 97.7709C14.9753 99.4928 15.7243 101.239 16.6909 102.863C15.7466 102.041 14.8319 101.188 13.8555 100.403L13.8777 100.425L13.8258 100.378L13.7541 100.314L13.7294 100.292C2.96144 90.4749 3.67584 105.18 17.9318 104.696C17.9318 104.696 17.9763 104.742 17.9837 104.752C18.2853 105.133 18.4954 105.429 18.7401 105.793C19.0788 106.285 19.9094 107.269 20.2505 107.692C20.6881 108.228 20.866 108.184 20.9921 108.066C21.1182 107.947 21.1651 107.751 20.918 107.463C20.4087 106.868 19.8476 106.132 19.373 105.507C18.8983 104.882 18.4855 104.238 18.048 103.586C17.6104 102.934 17.2001 102.27 16.812 101.594C16.4239 100.917 16.0556 100.223 15.7144 99.5174C15.3733 98.8114 15.0593 98.0932 14.7751 97.3626C16.1149 94.2139 18.7525 92 20.7894 89.3163C25.1673 80.6525 15.047 82.3105 14.1941 96.0096C12.6714 92.0615 11.0498 87.9682 10.7037 83.7397C10.8038 83.6282 10.9147 83.5268 11.0349 83.4371L10.9657 83.4888C13.5935 81.2749 16.6192 79.5923 19.3952 77.5678C25.4318 70.3136 14.0335 70.5276 10.9558 81.725L10.9781 81.6709L10.9113 81.8308L10.9262 81.7939C10.7581 82.1998 10.585 82.6032 10.4318 83.0239C9.84511 79.5127 9.53517 75.9613 9.50479 72.402C9.76436 72.117 10.0517 71.8583 10.3626 71.6296C10.4466 71.5657 10.5282 71.4993 10.6098 71.4328C14.0878 68.8524 20.1591 69.4649 21.9512 64.8969L21.9661 64.8649C22.0699 64.5648 22.2973 64.277 22.2701 63.9498C22.2921 63.9077 22.2972 63.8589 22.2843 63.8132C22.2715 63.7676 22.2417 63.7285 22.2009 63.7039C18.2803 60.196 11.0053 67.6397 9.51468 71.2287C9.51468 67.219 10.1228 63.2365 10.6394 59.2687C14.0186 57.0917 19.3334 58.2552 21.8375 54.6145L21.8721 54.5703L21.8499 54.6022L21.8351 54.6244ZM26.2031 47.5571L26.1734 47.5719C25.5035 47.9163 24.7248 47.8892 23.9931 47.8671H24.0252C21.6027 47.7662 19.2419 47.1291 16.8392 46.8659H16.4684C16.3571 46.8659 16.2459 46.8659 16.1347 46.8659C19.6597 45.8032 23.3627 47.2668 26.9026 46.5682C26.8161 46.952 26.6184 47.3751 26.2031 47.5571ZM26.9125 46.0467C26.933 46.0886 26.9496 46.1322 26.962 46.1771C26.8776 46.1911 26.7948 46.2133 26.7148 46.2435L26.6975 46.246C26.5385 46.3 26.371 46.325 26.2031 46.3198H26.2253L25.9781 46.3395H26.0275C25.637 46.3641 25.2464 46.2976 24.8534 46.3395C21.7362 46.4428 18.5745 45.7737 15.5117 46.6322C18.1518 44.6667 24.5369 43.2252 26.9199 46.0467H26.9125ZM26.8952 42.0642H26.8581C24.9102 41.6878 23.0809 40.8908 21.1726 40.4185L20.9501 40.3521C21.9735 40.1799 22.987 40.3693 23.9882 40.5981H24.0376C24.8385 40.7161 25.6394 40.8121 26.4379 40.9498H26.3761C27.6121 41.1565 28.942 41.3951 30.1978 41.2253C29.4339 42.3348 28.0719 42.3102 26.8952 42.0642ZM29.911 40.4406C30.0028 40.5571 30.0855 40.6805 30.1582 40.8096C28.4278 41.0187 26.6975 40.4382 24.9967 40.2906L25.0561 40.3029C23.5729 40.1947 22.1218 39.9068 20.6485 40.0889H20.4532C23.2911 38.6744 27.3871 38.2071 29.911 40.4406ZM29.56 33.3857C29.3557 33.4135 29.1505 33.4332 28.9445 33.4447C31.2879 32.4238 33.4979 30.8421 36.0589 30.4805C36.6472 32.751 31.2237 33.0782 29.56 33.3857ZM36.269 30.1017C33.6487 29.9738 31.2682 31.8482 28.9148 32.8494C28.6849 32.9429 28.4427 33.0167 28.2103 33.1102C30.4623 31.5038 33.3273 28.5471 36.269 30.1017ZM23.3949 28.4044C24.8583 30.0132 23.3281 32.8666 22.767 34.7017V34.6771C22.767 34.7091 22.7398 34.7435 22.7274 34.778C22.7189 34.7944 22.7123 34.8117 22.7077 34.8296C22.7077 34.8124 22.7077 34.7952 22.725 34.7804L22.7027 34.8395L22.6656 34.9329V34.9157C22.4407 35.4594 22.238 36.0079 22.0303 36.5565C21.924 36.8221 21.8326 37.0952 21.7164 37.3609C21.7751 36.7913 21.87 36.226 22.0007 35.6684C21.9996 35.6554 21.9996 35.6422 22.0007 35.6291V35.6537C22.2083 35.0067 22.2652 34.3253 22.4234 33.6661V33.6981C22.8758 32.1951 23.0117 30.6478 23.165 29.0956C23.165 29.0956 23.165 29.0784 23.165 29.071C23.2021 28.857 23.3281 28.6405 23.3949 28.4044ZM22.9895 28.3527C23.064 28.3416 23.1399 28.3416 23.2144 28.3527C22.6113 29.9221 22.8708 31.681 22.2578 33.2725C22.0378 34.0843 21.9043 34.9157 21.6472 35.7201C21.6052 35.8948 21.5607 36.0719 21.531 36.249C21.531 36.2244 21.531 36.1973 21.531 36.1727C21.531 36.1949 21.531 36.217 21.531 36.2391C21.531 36.1924 21.531 36.1481 21.5112 36.1038V36.1703C21.5335 33.6809 20.4038 29.8483 22.9895 28.3527ZM16.718 34.6992C18.6956 36.463 17.2372 39.9241 16.7551 42.1552C16.7255 42.2487 16.7007 42.3446 16.6785 42.4381C16.8243 39.865 16.8095 37.2723 16.7156 34.6992H16.718ZM15.8998 34.9649C15.9995 34.844 16.1314 34.7536 16.2805 34.7042C16.3138 34.6958 16.3477 34.6901 16.3819 34.6869C16.4239 37.5404 16.4214 40.4333 16.3151 43.2966C16.3145 43.2859 16.3145 43.2752 16.3151 43.2646C15.5735 40.7039 14.4883 37.4199 15.8973 34.9649H15.8998ZM10.5381 40.6891C10.6057 40.6708 10.6758 40.6634 10.7457 40.667C10.6815 44.8488 10.323 49.0503 11.1709 53.178C9.52456 49.6898 6.88943 43.6459 10.5381 40.6891ZM10.9781 40.7161C12.2808 41.368 12.1894 43.176 12.1819 44.4478C12.1177 45.8229 11.7963 47.166 11.5961 48.5238C11.2821 49.9284 11.3489 51.3527 11.4453 52.777C10.5925 48.8117 11.0053 44.7405 10.9781 40.7161ZM4.56576 51.3527C4.61697 51.3129 4.67466 51.2821 4.73632 51.2617C4.73632 51.3626 4.7561 51.461 4.76352 51.5618V51.5471C5.14173 55.7289 6.49391 59.8221 8.23913 63.6325C5.65096 61.1136 1.48319 54.5899 4.56576 51.3527ZM6.86471 59.6426C6.06378 56.8924 5.19117 54.1176 5.01566 51.2519C7.70518 52.1399 7.3591 60.2994 8.47644 63.0594C8.54148 63.3462 8.62404 63.6288 8.72364 63.9056C7.91036 62.5797 7.44068 61.0767 6.86471 59.6426ZM2.25445 66.8328C2.34285 66.7162 2.44492 66.6105 2.5585 66.518C3.80686 69.8167 6.15525 72.5841 8.26879 75.3736C5.52242 73.8337 0.647658 70.4341 2.25445 66.8328ZM6.56559 72.6234C6.57468 72.6351 6.58294 72.6475 6.59031 72.6603C6.30109 72.2175 5.98468 71.7944 5.68804 71.3566L5.71276 71.3935C5.69546 71.3713 5.68062 71.3467 5.66579 71.3246L5.69051 71.3615C5.67321 71.3369 5.6559 71.3098 5.6386 71.2877C5.64826 71.2987 5.65733 71.3102 5.66579 71.3221L5.64107 71.2877C5.55702 71.1622 5.4705 71.0417 5.39387 70.9187C5.40233 70.9307 5.41141 70.9422 5.42106 70.9532C4.43227 69.5018 3.44348 68.0357 2.86997 66.3704C4.57317 66.3236 5.16398 68.3555 5.88333 69.5682V69.5486L5.89816 69.583C6.39256 70.84 6.78313 72.1265 7.57417 73.2409C7.93013 73.8878 8.23419 74.5594 8.58026 75.2088C7.8535 74.3847 7.26269 73.4672 6.56559 72.6234ZM0.632826 82.8418C0.574772 82.5257 0.583012 82.201 0.65703 81.8882C0.731048 81.5753 0.869247 81.2811 1.06295 81.024C1.3682 81.6532 1.75916 82.2376 2.22479 82.7606L2.34839 82.9107L2.32861 82.8861C4.37294 85.346 6.98089 87.3139 9.62591 89.0703C6.14041 88.3372 1.66117 86.5563 0.632826 82.8418ZM1.39173 80.7386C5.55702 79.9736 7.28 85.619 9.81873 87.9535C10.0808 88.2905 10.3403 88.6275 10.5603 88.9891C7.24292 86.6227 3.65359 84.2095 1.39173 80.7386ZM13.9989 101.107C14.5312 101.53 15.0437 101.975 15.5364 102.442C12.7826 101.035 9.41827 99.943 7.5272 97.4118C10.1673 97.2888 12.093 99.6035 13.9989 101.102V101.107ZM16.8243 103.807C13.3191 103.864 7.60383 102.43 6.93639 98.4523C6.93195 98.1736 7.00373 97.899 7.14404 97.6578C8.67667 99.8421 11.4577 100.87 13.7566 102.105C14.8257 102.585 15.852 103.155 16.8243 103.807ZM15.5414 94.7477C15.3832 94.9937 15.2373 95.2618 15.0964 95.525C15.3637 94.3833 15.8378 93.2997 16.4956 92.3272L16.4758 92.3518C18.4188 90.0739 19.6399 87.309 21.0959 84.7433C22.4407 89.0235 17.4275 91.5203 15.5414 94.7379V94.7477ZM20.2703 84.5293C20.4542 84.4981 20.6425 84.5039 20.824 84.5465C19.2487 87.6088 17.4956 90.5772 15.5735 93.4366C15.1086 94.3082 14.7667 95.2394 14.5575 96.204C15.1508 92.2165 15.9987 86.0963 20.2703 84.5293ZM12.5676 81.4225C12.4514 81.4987 12.3377 81.5774 12.2264 81.6684C14.8517 78.906 17.4473 75.9787 20.6312 73.846C20.4334 78.0081 15.2719 79.0634 12.5676 81.4225ZM20.0231 73.204C20.1348 73.2552 20.2408 73.3179 20.3395 73.3909C18.8786 74.2076 17.7316 75.4031 16.4758 76.483L16.4165 76.5322L16.4387 76.515L16.4214 76.5273L16.3645 76.5765L16.3967 76.547L16.3522 76.5863C14.7281 78.1606 13.0051 79.6489 11.559 81.3905C12.9087 77.8113 15.5265 72.6529 20.0231 73.204ZM21.6274 64.9707C19.8624 68.9262 14.6391 68.5744 11.3093 70.471C11.1956 70.5227 11.0844 70.5793 10.9707 70.6334C12.4539 69.3641 14.12 68.2891 15.7169 67.1649C17.8379 66.2744 20.0824 65.5857 21.9512 64.2131C21.8449 64.464 21.7213 64.7124 21.62 64.9707H21.6274ZM21.8499 63.6965C21.8697 63.7235 21.8845 63.753 21.9018 63.7801C20.4334 64.7026 18.8514 65.3864 17.2668 66.0875L17.3163 66.0653C14.6428 67.1857 12.2038 68.7943 10.1253 70.808C12.0707 67.4822 17.645 61.2809 21.8425 63.6965H21.8499ZM11.3959 57.8911L11.4453 57.8247L11.5862 57.6378V57.6205V57.6353L11.606 57.6107C13.811 54.8753 18.1147 51.1658 21.7535 53.0058C21.8173 53.0614 21.8746 53.1241 21.924 53.1927C21.7322 53.2699 21.5505 53.3699 21.3827 53.4904H21.4C21.1807 53.6421 20.9432 53.7661 20.693 53.8594H20.7152L20.6287 53.8889H20.651L20.3741 53.9799H20.3964L19.9662 54.1226C19.5435 54.2603 19.1109 54.3686 18.6956 54.5235C16.0185 55.2221 13.633 56.6021 11.3069 58.0412C11.339 57.9674 11.3711 57.928 11.3959 57.8911ZM12.439 57.8542C12.2512 57.9059 12.0633 57.9649 11.8804 58.0289C12.3748 57.6722 12.9853 57.4779 13.4872 57.1138L13.4525 57.1359L13.5663 57.0621C14.8294 56.1643 16.2854 55.5862 17.7241 55.0376H17.692L17.7464 55.0204H17.734H17.7612L18.1419 54.8925H18.1691L18.3224 54.8409L18.2927 54.8532L18.488 54.7843L18.6536 54.7277C18.8341 54.6687 19.0096 54.5973 19.19 54.5334C19.6844 54.3858 20.1788 54.2283 20.6534 54.0414H20.6312C21.1553 53.9086 21.5359 53.5002 22.0254 53.3034C20.8215 57.0203 15.6798 56.9662 12.439 57.8542Z" fill="#F2948D"/>
</g>
<defs>
<clipPath id="clip0_909_5253">
<rect width="152" height="138" fill="white"/>
</clipPath>
</defs>
</svg>
