<svg width="38" height="23" viewBox="0 0 38 23" fill="none" xmlns="http://www.w3.org/2000/svg">
<g clip-path="url(#clip0_64_818)">
<path fill-rule="evenodd" clip-rule="evenodd" d="M13.7205 20.5116H23.8909V2.4552H13.7205V20.5116Z" fill="#FF5F00"/>
<path fill-rule="evenodd" clip-rule="evenodd" d="M14.3661 11.4834C14.3661 7.82022 16.1022 4.55765 18.8056 2.45522C16.8283 0.917398 14.3338 0 11.6224 0C5.20338 0 0 5.14139 0 11.4834C0 17.8255 5.20338 22.9669 11.6224 22.9669C14.3338 22.9669 16.8283 22.0495 18.8056 20.5116C16.1022 18.4089 14.3661 15.1466 14.3661 11.4834Z" fill="#EB001B"/>
<path fill-rule="evenodd" clip-rule="evenodd" d="M37.2484 18.5992V18.1536H37.1305L36.9952 18.4601L36.8596 18.1536H36.7418V18.5992H36.8247V18.263L36.952 18.553H37.0382L37.1654 18.2624V18.5992H37.2484ZM36.5022 18.5992V18.2295H36.6533V18.1542H36.2691V18.2295H36.4199V18.5992H36.5022ZM37.6113 11.4833C37.6113 17.8254 32.4076 22.9667 25.9889 22.9667C23.2774 22.9667 20.7826 22.0493 18.8057 20.5115C21.5091 18.4091 23.2451 15.1465 23.2451 11.4833C23.2451 7.82041 21.5091 4.55784 18.8057 2.4551C20.7826 0.917276 23.2774 -0.00012207 25.9889 -0.00012207C32.4076 -0.00012207 37.6113 5.14126 37.6113 11.4833Z" fill="#F79E1B"/>
</g>
<defs>
<clipPath id="clip0_64_818">
<rect width="38" height="23" fill="white"/>
</clipPath>
</defs>
</svg>
