<svg width="20" height="21" viewBox="0 0 20 21" fill="none" xmlns="http://www.w3.org/2000/svg">
<path d="M13.8573 14.3573L19 19.5M8.3636 1.5C6.90722 1.5 5.48354 1.93187 4.2726 2.74099C3.06167 3.55011 2.11786 4.70015 1.56052 6.04567C1.00319 7.39119 0.857367 8.87176 1.14149 10.3002C1.42562 11.7286 2.12693 13.0406 3.15675 14.0704C4.18657 15.1003 5.49863 15.8016 6.92703 16.0857C8.35543 16.3698 9.836 16.224 11.1815 15.6667C12.527 15.1093 13.6771 14.1655 14.4862 12.9546C15.2953 11.7437 15.7272 10.32 15.7272 8.86359C15.7271 6.91069 14.9512 5.0378 13.5703 3.65688C12.1894 2.27597 10.3165 1.50012 8.3636 1.5Z" stroke="#A09696" stroke-width="1.5" stroke-miterlimit="10"/>
</svg>
