<svg width="55" height="19" viewBox="0 0 55 19" fill="none" xmlns="http://www.w3.org/2000/svg">
<g clip-path="url(#clip0_64_816)">
<path d="M35.8151 0.0292358C31.9138 0.0292358 28.4275 2.18072 28.4275 6.15575C28.4275 10.7144 34.6107 11.0292 34.6107 13.3193C34.6107 14.2836 33.5721 15.1468 31.7982 15.1468C29.2807 15.1468 27.3991 13.9407 27.3991 13.9407L26.5939 17.9519C26.5939 17.9519 28.7615 18.9707 31.6393 18.9707C35.9047 18.9707 39.261 16.7136 39.261 12.6706C39.261 7.8536 33.052 7.5481 33.052 5.42249C33.052 4.66712 33.9046 3.83946 35.6734 3.83946C37.6692 3.83946 39.2975 4.71664 39.2975 4.71664L40.0854 0.84245C40.0854 0.84245 38.3137 0.0292358 35.8151 0.0292358ZM0.121932 0.321628L0.0274658 0.90641C0.0274658 0.90641 1.66875 1.22601 3.147 1.86354C5.05036 2.59459 5.18595 3.02017 5.50651 4.34201L8.99961 18.6692H13.6821L20.8959 0.321628H16.2241L11.5888 12.7962L9.69737 2.22217C9.52391 1.01198 8.64526 0.321628 7.56974 0.321628H0.121932ZM22.7745 0.321628L19.1096 18.6692H23.5646L27.2166 0.321628H22.7745ZM47.6213 0.321628C46.547 0.321628 45.9778 0.933553 45.5602 2.00288L39.0334 18.6692H43.7052L44.6091 15.8915H50.3007L50.8503 18.6692H54.9725L51.3763 0.321628H47.6213ZM48.2289 5.27858L49.6137 12.1635H45.9037L48.2289 5.27858Z" fill="#1434CB"/>
</g>
<defs>
<clipPath id="clip0_64_816">
<rect width="55" height="19" fill="white"/>
</clipPath>
</defs>
</svg>
