<svg width="50" height="50" viewBox="0 0 50 50" fill="none" xmlns="http://www.w3.org/2000/svg">
<path d="M21.4343 40.043L19.082 47.5397C19.0118 47.7641 18.8055 47.9167 18.5714 47.9167H8.92857C8.75821 47.9167 8.5975 47.8347 8.49625 47.6961C8.395 47.5575 8.36607 47.3791 8.41804 47.2151L12.2184 35.1022C12.3475 35.4052 12.4654 35.7449 12.5816 36.0809C12.9754 37.2208 13.4216 38.5122 14.5509 39.17C15.6646 39.8187 16.9895 39.5658 18.1568 39.3442C18.8945 39.2035 19.6568 39.059 20.1459 39.1905C20.5193 39.2903 20.9752 39.6499 21.4343 40.043ZM37.7816 35.1017C37.6525 35.4047 37.5341 35.7449 37.4179 36.0814C37.0241 37.2208 36.5779 38.5127 35.4491 39.17C34.3354 39.8187 33.0105 39.5669 31.8432 39.3442C31.1045 39.2035 30.3421 39.06 29.8541 39.19C29.4807 39.2908 29.0248 39.6499 28.5657 40.043L30.9175 47.5397C30.9882 47.7641 31.1945 47.9167 31.4286 47.9167H41.0714C41.2418 47.9167 41.4025 47.8347 41.5037 47.6961C41.605 47.5575 41.6339 47.3791 41.582 47.2151L37.7816 35.1017ZM36.25 20.9559C36.25 27.1994 31.203 32.2794 25 32.2794C18.797 32.2794 13.75 27.1994 13.75 20.9559C13.75 14.7123 18.797 9.63233 25 9.63233C31.203 9.63233 36.25 14.7123 36.25 20.9559ZM41.0452 25.2863C40.7886 26.2515 40.9787 27.2647 41.163 28.245C41.3146 29.0511 41.4866 29.9656 41.2407 30.3932C40.9862 30.8354 40.1029 31.1454 39.3229 31.4177C38.3961 31.7423 37.4366 32.0777 36.7445 32.7744C36.0502 33.4738 35.717 34.439 35.3945 35.3723C35.1229 36.1574 34.8159 37.0461 34.3771 37.3022C34.3236 37.3329 34.1634 37.4262 33.7471 37.4262C33.3052 37.4262 32.7652 37.3238 32.2429 37.224C31.6439 37.1097 30.9662 36.9808 30.3148 36.9808C29.9463 36.9808 29.6157 37.0213 29.3061 37.1038C28.3755 37.355 27.618 38.014 26.8852 38.6518C26.2204 39.231 25.5341 39.8284 25 39.8284C24.4648 39.8284 23.7786 39.231 23.1143 38.6518C22.3814 38.014 21.6234 37.3545 20.6971 37.1059C20.3864 37.0223 20.0538 36.9819 19.682 36.9819C19.0327 36.9819 18.355 37.1108 17.7571 37.2251C17.2321 37.3248 16.6921 37.4273 16.2507 37.4273C15.8361 37.4273 15.6754 37.3335 15.6229 37.3033C15.183 37.0466 14.875 36.1574 14.6045 35.3723C14.282 34.4395 13.9488 33.4738 13.2566 32.7771C12.5618 32.0783 11.6029 31.7429 10.6755 31.4183C9.89554 31.1449 9.01268 30.8359 8.75821 30.3943C8.51286 29.9667 8.68429 29.0533 8.83589 28.2466C9.02071 27.2609 9.20982 26.2504 8.95429 25.2868C8.70625 24.3545 8.05107 23.5916 7.41786 22.8544C6.84357 22.1842 6.25 21.4935 6.25 20.9559C6.25 20.4172 6.84357 19.7265 7.41893 19.0578C8.05268 18.3202 8.70786 17.5572 8.95482 16.6249C9.21143 15.6597 9.02125 14.6465 8.83696 13.6662C8.68536 12.8601 8.51339 11.9456 8.75929 11.518C9.01375 11.0758 9.89714 10.7658 10.6771 10.4935C11.6039 10.1689 12.5634 9.83346 13.2555 9.13679C13.9498 8.43743 14.283 7.47223 14.6055 6.53885C14.8771 5.75375 15.1841 4.86513 15.6229 4.609C15.6764 4.57826 15.8371 4.48444 16.2534 4.48444C16.6964 4.48444 17.2354 4.58743 17.7566 4.68719C18.3545 4.80096 19.0305 4.92983 19.6852 4.92983C20.0527 4.92983 20.3805 4.89047 20.6891 4.80851C21.6245 4.55616 22.382 3.89723 23.1143 3.25934C23.7796 2.68076 24.4659 2.08331 25 2.08331C25.5352 2.08331 26.2214 2.68076 26.8857 3.25988C27.6186 3.89777 28.3766 4.55723 29.3029 4.80581C29.613 4.88885 29.9446 4.92983 30.3164 4.92983C30.963 4.92983 31.6423 4.80096 32.2412 4.68719C32.7657 4.58689 33.3068 4.48444 33.7482 4.48444C34.1629 4.48444 34.3241 4.57826 34.3766 4.60846C34.8164 4.86513 35.1245 5.75429 35.395 6.53939C35.7175 7.47224 36.0507 8.43797 36.7429 9.13464C37.4377 9.83346 38.3966 10.1689 39.3239 10.4935C40.1039 10.7668 40.9868 11.0758 41.2412 11.5174C41.4866 11.945 41.3152 12.8585 41.1636 13.6651C40.9787 14.6508 40.7896 15.6613 41.0452 16.6249C41.2932 17.5572 41.9484 18.3202 42.5816 19.0573C43.1564 19.7275 43.75 20.4183 43.75 20.9559C43.75 21.4945 43.1564 22.1853 42.5811 22.8539C41.9479 23.5916 41.2921 24.3545 41.0452 25.2863ZM38.3929 20.9559C38.3929 13.5228 32.3848 7.47547 25 7.47547C17.6152 7.47547 11.6071 13.5228 11.6071 20.9559C11.6071 28.389 17.6152 34.4363 25 34.4363C32.3848 34.4363 38.3929 28.389 38.3929 20.9559Z" fill="#EDE7EA"/>
</svg>
