<svg width="50" height="50" viewBox="0 0 50 50" fill="none" xmlns="http://www.w3.org/2000/svg">
<path d="M21.623 17.1926L25.0024 20.5717L28.3896 17.1838L25.0112 13.8057L21.623 17.1926Z" fill="#EDE7EA"/>
<path d="M29.4287 25.0053L32.8166 21.6177L36.1954 24.9963L32.8075 28.3839L29.4287 25.0053Z" fill="#EDE7EA"/>
<path d="M28.9128 16.6616L32.2912 13.2826L28.6527 9.64339L28.6507 9.6424L21.0998 2.09218L17.7205 5.47126L28.9128 16.6616Z" fill="#EDE7EA"/>
<path d="M36.7248 17.7157L33.3454 21.0948L44.5367 32.2852L47.9161 28.9061L36.7248 17.7157Z" fill="#EDE7EA"/>
<path d="M9.90546 13.2816L13.285 9.90231L16.6639 13.2809L13.2843 16.6601L9.90546 13.2816Z" fill="#EDE7EA"/>
<path d="M32.2912 28.9061L21.1008 17.7157L17.7214 21.0938L28.9128 32.2842L32.2912 28.9061Z" fill="#EDE7EA"/>
<path d="M33.3367 36.7174L36.7162 33.3382L40.0951 36.7167L36.7155 40.096L33.3367 36.7174Z" fill="#EDE7EA"/>
<path d="M20.5776 24.9951L17.1993 21.617L13.811 25.0049L17.1894 28.383L20.5776 24.9951Z" fill="#EDE7EA"/>
<path d="M21.623 32.8162L25.0024 36.1953L28.3896 32.8073L25.0102 29.4282L21.623 32.8162Z" fill="#EDE7EA"/>
<path d="M13.2879 32.2842L16.6672 28.9051L5.47588 17.7148L2.09651 21.0938L13.2879 32.2842Z" fill="#EDE7EA"/>
<path d="M21.0998 33.3383L17.7214 36.7174L25.2733 44.2676L25.2743 44.2706L28.9128 47.9078L32.2922 44.5287L21.0998 33.3383Z" fill="#EDE7EA"/>
<path d="M41.1408 21.0927L44.5287 17.7051L47.9166 21.0927L44.5287 24.4804L41.1408 21.0927Z" fill="#EDE7EA"/>
<path d="M21.0998 41.1417L17.7126 44.5287L21.0998 47.9166L24.4891 44.5287L21.0998 41.1417Z" fill="#EDE7EA"/>
<path d="M40.113 13.2826L36.7248 9.8946L29.1749 17.4438L29.1729 17.4468L25.5245 21.0938L28.9128 24.4818L40.113 13.2826Z" fill="#EDE7EA"/>
<path d="M28.9128 2.08331L25.5245 5.47126L28.9128 8.85921L32.3 5.47126L28.9128 2.08331Z" fill="#EDE7EA"/>
<path d="M2.08325 28.9033L5.47116 25.5157L8.85907 28.9033L5.47116 32.2909L2.08325 28.9033Z" fill="#EDE7EA"/>
<path d="M36.7248 25.5182L33.0764 29.1662L33.0735 29.1682L25.5245 36.7174L28.9128 40.1054L40.113 28.9061L36.7248 25.5182Z" fill="#EDE7EA"/>
<path d="M20.8397 32.5541L24.4881 28.9061L21.0998 25.5182L9.89961 36.7174L13.2879 40.1054L20.8368 32.5561L20.8397 32.5541Z" fill="#EDE7EA"/>
<path d="M13.2879 24.4818L16.9362 20.8347L16.9382 20.8318L20.8368 16.9345L20.8397 16.9306L24.4881 13.2826L21.0998 9.8946L9.89961 21.0938L13.2879 24.4818Z" fill="#EDE7EA"/>
</svg>
