<svg width="46" height="46" viewBox="0 0 46 46" fill="none" xmlns="http://www.w3.org/2000/svg">
<path d="M21.5618 2.76895C23.9852 2.76895 26.3238 3.20679 28.5524 4.07404C29.2368 3.2588 29.8505 2.5388 30.3791 1.93303C27.5817 0.71648 24.5902 0.0834068 21.5617 0.0834068C20.8201 0.0834068 20.2189 0.684611 20.2189 1.42618C20.2189 2.16775 20.8202 2.76895 21.5618 2.76895Z" fill="#EDE7EA"/>
<path d="M35.0606 11.9095C33.2483 10.6252 32.8151 8.10961 34.0905 6.29892C35.3043 4.57561 37.7871 3.98371 39.6924 5.31745C39.8898 5.45557 42.4995 7.32391 44.8438 10.9276C46.5381 8.20647 46.2367 4.56093 43.8374 2.1622C41.0405 -0.635518 36.5474 -0.583598 33.8027 2.16202C29.4645 6.49998 1.55362 42.2282 0.367598 43.747C-0.0498222 44.2815 -0.00282554 45.0437 0.47672 45.5231C0.956265 46.0027 1.71842 46.0497 2.25284 45.6323C3.49758 44.6603 27.7179 25.7391 38.8071 16.5534C37.6851 14.3509 36.2235 12.7302 35.0606 11.9095Z" fill="#EDE7EA"/>
<path d="M41.3036 37.9915C49.5194 26.475 45.6187 12.8935 38.1525 7.51736C36.6563 6.55674 35.2006 8.63276 36.6093 9.71521C43.9399 15.1317 45.5361 27.3081 39.3907 36.052C36.4939 33.3572 32.8056 31.0059 28.7531 31.0059C24.8405 31.0059 21.6573 34.1891 21.6573 38.1017C21.6573 42.0144 24.8405 45.1976 28.7531 45.1976C32.8874 45.1976 36.6375 43.2094 39.5709 40.0922C41.9108 42.7323 43.385 45.1979 43.4163 45.251C43.7361 45.7947 44.5252 46.1565 45.2545 45.7276C45.8937 45.3515 46.1069 44.5286 45.731 43.8893C45.5883 43.6469 43.9438 40.8918 41.3036 37.9915ZM28.7531 42.5121C26.3213 42.5121 24.3428 40.5337 24.3428 38.1018C24.3428 35.67 26.3213 33.6915 28.7531 33.6915C32.0544 33.6915 35.1896 35.7659 37.7075 38.157C35.2334 40.8224 32.1163 42.5121 28.7531 42.5121Z" fill="#EDE7EA"/>
</svg>
