<svg width="50" height="50" viewBox="0 0 50 50" fill="none" xmlns="http://www.w3.org/2000/svg">
<path d="M45.7779 39.4817C45.7796 39.4744 33.4352 18.602 33.4447 18.5928C32.6467 14.7181 33.9928 10.2617 34.009 10.2208C34.064 10.0391 34.0555 9.84355 33.985 9.66739C33.9145 9.49124 33.7863 9.34525 33.622 9.25413C32.9662 8.85027 32.2786 8.50229 31.5662 8.21378L32.6724 3.064C32.714 2.8533 32.6725 2.63442 32.5568 2.45453C32.4411 2.27464 32.2605 2.14814 32.0539 2.1023C31.8473 2.05645 31.6312 2.09494 31.4523 2.20945C31.2734 2.32396 31.1458 2.50534 31.0972 2.71449L29.9547 8.03359C28.8703 8.31694 27.7648 8.50872 26.6494 8.60697L23.4089 8.60702C22.2014 8.64422 21.2051 8.16687 20.1036 8.03349L18.9611 2.71442C18.9125 2.50524 18.7849 2.32384 18.606 2.20932C18.427 2.0948 18.2109 2.05632 18.0043 2.10219C17.7977 2.14805 17.6171 2.27458 17.5014 2.45451C17.3857 2.63444 17.3442 2.85335 17.3859 3.06406L18.4954 8.22934C18.001 8.32111 16.7303 9.21603 16.5087 9.21309C16.34 9.28592 16.2004 9.41456 16.1126 9.57815C16.0248 9.74174 15.994 9.93067 16.0252 10.1143C16.325 11.8231 17.0078 16.5237 16.7265 18.2978L4.28045 39.924C4.19967 40.0617 4.16042 40.2205 4.16758 40.3807C4.17474 40.5409 4.22799 40.6954 4.32073 40.8251C4.41745 40.9562 6.77122 44.1264 12.2123 44.1837C13.1944 44.2385 15.3223 44.2404 16.2589 44.3393C16.4478 43.48 18.6423 33.3505 18.6423 33.3505C18.6908 33.1406 18.8187 32.9586 18.9982 32.8438C19.1777 32.729 19.3945 32.6907 19.6017 32.7371C19.8088 32.7835 19.9897 32.911 20.1051 33.0918C20.2205 33.2727 20.2611 33.4925 20.2183 33.7036C19.7172 36.0074 18.2006 43.0261 17.7421 45.1012C20.8628 48.4392 27.6514 49.3065 32.9691 44.9457C32.7552 44.0432 30.3724 33.7144 30.3724 33.7144C30.3271 33.5036 30.3652 33.2833 30.4785 33.1008C30.5918 32.9184 30.7712 32.7886 30.9779 32.7394C31.1845 32.6903 31.402 32.7257 31.5831 32.8381C31.7643 32.9504 31.8948 33.1307 31.9463 33.34C32.1565 34.2427 34.4846 44.3229 34.4846 44.3229C35.6159 44.0978 36.7758 44.0618 37.9185 44.2165C38.6284 44.2089 46.5707 43.2876 45.7779 39.4817Z" fill="#EDE7EA"/>
</svg>
