<svg width="14" height="14" viewBox="0 0 14 14" fill="none" xmlns="http://www.w3.org/2000/svg">
<g clip-path="url(#clip0_909_8871)">
<path d="M12.5416 2.33354H10.986V3.50021C10.986 3.61256 10.9639 3.72381 10.9209 3.82761C10.8779 3.93142 10.8149 4.02573 10.7354 4.10518C10.656 4.18462 10.5617 4.24764 10.4579 4.29064C10.3541 4.33363 10.2428 4.35576 10.1305 4.35576C10.0181 4.35576 9.90686 4.33363 9.80306 4.29064C9.69926 4.24764 9.60494 4.18462 9.5255 4.10518C9.44605 4.02573 9.38303 3.93142 9.34004 3.82761C9.29704 3.72381 9.27491 3.61256 9.27491 3.50021V2.33354H4.74435V3.50021C4.74435 3.72712 4.65422 3.94473 4.49377 4.10518C4.33332 4.26562 4.11571 4.35576 3.8888 4.35576C3.66189 4.35576 3.44428 4.26562 3.28383 4.10518C3.12338 3.94473 3.03324 3.72712 3.03324 3.50021V2.33354H1.47769C1.38514 2.33249 1.29332 2.35 1.20766 2.38505C1.12201 2.4201 1.04424 2.47198 0.978982 2.5376C0.913719 2.60323 0.862279 2.68127 0.827704 2.76713C0.793129 2.85298 0.776122 2.94489 0.777688 3.03743V11.7408C0.776143 11.8317 0.792522 11.922 0.825889 12.0066C0.859256 12.0911 0.908958 12.1683 0.972156 12.2337C1.03535 12.299 1.11081 12.3513 1.19421 12.3875C1.27762 12.4237 1.36734 12.4431 1.45824 12.4447H12.5416C12.6325 12.4431 12.7222 12.4237 12.8056 12.3875C12.889 12.3513 12.9645 12.299 13.0277 12.2337C13.0909 12.1683 13.1406 12.0911 13.1739 12.0066C13.2073 11.922 13.2237 11.8317 13.2221 11.7408V3.03743C13.2237 2.94652 13.2073 2.8562 13.1739 2.77162C13.1406 2.68705 13.0909 2.60987 13.0277 2.54451C12.9645 2.47914 12.889 2.42687 12.8056 2.39067C12.7222 2.35447 12.6325 2.33506 12.5416 2.33354ZM3.8888 10.1113H3.11102V9.33354H3.8888V10.1113ZM3.8888 8.16687H3.11102V7.3891H3.8888V8.16687ZM3.8888 6.22243H3.11102V5.44465H3.8888V6.22243ZM6.22213 10.1113H5.44436V9.33354H6.22213V10.1113ZM6.22213 8.16687H5.44436V7.3891H6.22213V8.16687ZM6.22213 6.22243H5.44436V5.44465H6.22213V6.22243ZM8.55547 10.1113H7.77769V9.33354H8.55547V10.1113ZM8.55547 8.16687H7.77769V7.3891H8.55547V8.16687ZM8.55547 6.22243H7.77769V5.44465H8.55547V6.22243ZM10.8888 10.1113H10.111V9.33354H10.8888V10.1113ZM10.8888 8.16687H10.111V7.3891H10.8888V8.16687ZM10.8888 6.22243H10.111V5.44465H10.8888V6.22243Z" fill="#A09696"/>
<path d="M3.88889 3.88894C3.99203 3.88894 4.09094 3.84797 4.16387 3.77504C4.23681 3.70211 4.27778 3.60319 4.27778 3.50005V1.16672C4.27778 1.06358 4.23681 0.964666 4.16387 0.891735C4.09094 0.818804 3.99203 0.777832 3.88889 0.777832C3.78575 0.777832 3.68683 0.818804 3.6139 0.891735C3.54097 0.964666 3.5 1.06358 3.5 1.16672V3.50005C3.5 3.60319 3.54097 3.70211 3.6139 3.77504C3.68683 3.84797 3.78575 3.88894 3.88889 3.88894Z" fill="#A09696"/>
<path d="M10.1111 3.88894C10.2142 3.88894 10.3131 3.84797 10.386 3.77504C10.459 3.70211 10.4999 3.60319 10.4999 3.50005V1.16672C10.4999 1.06358 10.459 0.964666 10.386 0.891735C10.3131 0.818804 10.2142 0.777832 10.1111 0.777832C10.0079 0.777832 9.909 0.818804 9.83607 0.891735C9.76314 0.964666 9.72217 1.06358 9.72217 1.16672V3.50005C9.72217 3.60319 9.76314 3.70211 9.83607 3.77504C9.909 3.84797 10.0079 3.88894 10.1111 3.88894Z" fill="#A09696"/>
</g>
<defs>
<clipPath id="clip0_909_8871">
<rect width="14" height="14" fill="white"/>
</clipPath>
</defs>
</svg>
