<svg width="50" height="50" viewBox="0 0 50 50" fill="none" xmlns="http://www.w3.org/2000/svg">
<circle cx="25" cy="25" r="24.5" stroke="#F1D8D6"/>
<path d="M25.7143 15C28.6254 15 28.9886 15.0107 30.1307 15.0643C31.2718 15.1179 32.0486 15.2968 32.7321 15.5625C33.4393 15.8346 34.035 16.2032 34.6307 16.7979C35.1755 17.3335 35.5971 17.9813 35.8661 18.6964C36.1307 19.3789 36.3107 20.1568 36.3643 21.2979C36.4146 22.44 36.4286 22.8032 36.4286 25.7143C36.4286 28.6254 36.4179 28.9886 36.3643 30.1307C36.3107 31.2718 36.1307 32.0486 35.8661 32.7321C35.5979 33.4476 35.1762 34.0957 34.6307 34.6307C34.095 35.1753 33.4471 35.5969 32.7321 35.8661C32.0496 36.1307 31.2718 36.3107 30.1307 36.3643C28.9886 36.4146 28.6254 36.4286 25.7143 36.4286C22.8032 36.4286 22.44 36.4179 21.2979 36.3643C20.1568 36.3107 19.38 36.1307 18.6964 35.8661C17.9811 35.5977 17.3331 35.176 16.7979 34.6307C16.2529 34.0952 15.8314 33.4473 15.5625 32.7321C15.2968 32.0496 15.1179 31.2718 15.0643 30.1307C15.0139 28.9886 15 28.6254 15 25.7143C15 22.8032 15.0107 22.44 15.0643 21.2979C15.1179 20.1557 15.2968 19.38 15.5625 18.6964C15.8306 17.9809 16.2523 17.3328 16.7979 16.7979C17.3332 16.2527 17.9812 15.8311 18.6964 15.5625C19.38 15.2968 20.1557 15.1179 21.2979 15.0643C22.44 15.0139 22.8032 15 25.7143 15ZM25.7143 20.3571C24.2935 20.3571 22.9309 20.9216 21.9262 21.9262C20.9216 22.9309 20.3571 24.2935 20.3571 25.7143C20.3571 27.1351 20.9216 28.4977 21.9262 29.5024C22.9309 30.507 24.2935 31.0714 25.7143 31.0714C27.1351 31.0714 28.4977 30.507 29.5024 29.5024C30.507 28.4977 31.0714 27.1351 31.0714 25.7143C31.0714 24.2935 30.507 22.9309 29.5024 21.9262C28.4977 20.9216 27.1351 20.3571 25.7143 20.3571ZM32.6786 20.0893C32.6786 19.7341 32.5375 19.3934 32.2863 19.1423C32.0351 18.8911 31.6945 18.75 31.3393 18.75C30.9841 18.75 30.6434 18.8911 30.3923 19.1423C30.1411 19.3934 30 19.7341 30 20.0893C30 20.4445 30.1411 20.7851 30.3923 21.0363C30.6434 21.2875 30.9841 21.4286 31.3393 21.4286C31.6945 21.4286 32.0351 21.2875 32.2863 21.0363C32.5375 20.7851 32.6786 20.4445 32.6786 20.0893ZM25.7143 22.5C26.5668 22.5 27.3843 22.8386 27.9871 23.4414C28.5899 24.0442 28.9286 24.8618 28.9286 25.7143C28.9286 26.5668 28.5899 27.3843 27.9871 27.9871C27.3843 28.5899 26.5668 28.9286 25.7143 28.9286C24.8618 28.9286 24.0442 28.5899 23.4414 27.9871C22.8386 27.3843 22.5 26.5668 22.5 25.7143C22.5 24.8618 22.8386 24.0442 23.4414 23.4414C24.0442 22.8386 24.8618 22.5 25.7143 22.5Z" fill="#F2948D"/>
</svg>
