<svg width="41" height="25" viewBox="0 0 41 25" fill="none" xmlns="http://www.w3.org/2000/svg">
<g clip-path="url(#clip0_909_3416)">
<path fill-rule="evenodd" clip-rule="evenodd" d="M14.8035 22.2955H25.7768V2.66895H14.8035V22.2955Z" fill="#AB8F8E"/>
<path fill-rule="evenodd" clip-rule="evenodd" d="M15.5003 12.482C15.5003 8.50023 17.3734 4.95396 20.2902 2.66872C18.1569 0.997172 15.4655 0 12.5399 0C5.61417 0 0 5.58846 0 12.482C0 19.3755 5.61417 24.964 12.5399 24.964C15.4655 24.964 18.1569 23.9668 20.2902 22.2953C17.3734 20.0097 15.5003 16.4637 15.5003 12.482Z" fill="#BBA09F"/>
<path fill-rule="evenodd" clip-rule="evenodd" d="M40.189 20.2167V19.7323H40.0618L39.9159 20.0655L39.7695 19.7323H39.6424V20.2167H39.7319V19.8512L39.8692 20.1664H39.9622L40.0994 19.8505V20.2167H40.189ZM39.3839 20.2167V19.8148H39.5469V19.733H39.1324V19.8148H39.2951V20.2167H39.3839ZM40.5805 12.482C40.5805 19.3755 34.966 24.964 28.0406 24.964C25.1151 24.964 22.4233 23.9668 20.2903 22.2953C23.2071 20.01 25.0802 16.4637 25.0802 12.482C25.0802 8.50058 23.2071 4.95431 20.2903 2.66872C22.4233 0.997172 25.1151 0 28.0406 0C34.966 0 40.5805 5.58846 40.5805 12.482Z" fill="#D4BBBA"/>
</g>
<defs>
<clipPath id="clip0_909_3416">
<rect width="41" height="25" fill="white"/>
</clipPath>
</defs>
</svg>
