<svg width="65" height="17" viewBox="0 0 65 17" fill="none" xmlns="http://www.w3.org/2000/svg">
<path d="M22.276 14.8379C22.276 15.0713 22.0932 15.2581 21.8647 15.2581C21.6362 15.2581 21.4533 15.0713 21.4533 14.8379V12.1672C21.4533 11.8124 21.2979 11.4949 21.042 11.2615C20.7769 11.0187 20.4113 10.8693 20.0091 10.8693C19.6069 10.8693 19.2413 11.0187 18.9762 11.2615C18.7202 11.4949 18.5649 11.8217 18.5649 12.1672V14.8379C18.5649 15.0713 18.382 15.2581 18.1535 15.2581C17.925 15.2581 17.7422 15.0713 17.7422 14.8379V12.1672C17.7422 11.5696 18.0073 11.028 18.4277 10.6358C18.8391 10.253 19.3967 10.0195 20.0182 10.0195C20.6307 10.0195 21.1974 10.253 21.6087 10.6358C22.0292 11.028 22.2943 11.5696 22.2943 12.1672V14.8379H22.276Z" fill="#BBA09F"/>
<path d="M25.3657 8.7122C25.3657 8.47875 25.5394 8.29199 25.7679 8.29199C25.9873 8.29199 26.1701 8.47875 26.1701 8.7122V9.07637C26.1701 9.30982 25.9964 9.49658 25.7679 9.49658C25.5485 9.49658 25.3657 9.30982 25.3657 9.07637V8.7122Z" fill="#BBA09F"/>
<path d="M31.7277 14.8379C31.7277 15.0713 31.5449 15.2581 31.3164 15.2581C31.0878 15.2581 30.905 15.0713 30.905 14.8379V12.0365C30.905 11.7284 30.7496 11.4389 30.512 11.2335C30.2469 11.0093 29.8813 10.8693 29.4699 10.8693C29.0586 10.8693 28.693 11.0093 28.4279 11.2335C28.1811 11.4482 28.0348 11.7284 28.0348 12.0365V14.8379C28.0348 15.0713 27.852 15.2581 27.6235 15.2581C27.395 15.2581 27.2122 15.0713 27.2122 14.8379V12.0365C27.2122 11.4669 27.4772 10.9533 27.9069 10.5891C28.3182 10.2343 28.8758 10.0195 29.4791 10.0195C30.0915 10.0195 30.6491 10.2343 31.0513 10.5891C31.4809 10.9533 31.746 11.4669 31.746 12.0365V14.8379H31.7277Z" fill="#BBA09F"/>
<path d="M36.4625 13.5771C36.5813 13.381 36.8372 13.3157 37.0292 13.4371C37.2211 13.5585 37.2851 13.8199 37.1663 14.016C36.9286 14.3989 36.6087 14.7164 36.2339 14.9311C35.8592 15.1459 35.4296 15.2673 34.9908 15.2673C34.287 15.2673 33.638 14.9778 33.1809 14.5016C32.7148 14.0254 32.4314 13.3717 32.4314 12.6527C32.4314 11.9337 32.7148 11.2707 33.1809 10.8038C33.6471 10.3276 34.287 10.0381 34.9908 10.0381C35.4478 10.0381 35.914 10.1968 36.2796 10.449C36.6636 10.7104 36.9561 11.0746 37.0566 11.4855C37.1023 11.6722 37.0109 11.859 36.8555 11.9523L34.3692 13.353C34.1681 13.4651 33.9213 13.3904 33.8116 13.1849C33.702 12.9795 33.7751 12.7274 33.9762 12.6153L36.106 11.3921C36.0328 11.2987 35.9323 11.2147 35.8226 11.1306C35.5849 10.9719 35.2833 10.8692 34.9908 10.8692C34.5155 10.8692 34.0767 11.0653 33.7659 11.3921C33.4552 11.7096 33.2541 12.1578 33.2541 12.6433C33.2541 13.1289 33.446 13.5771 33.7659 13.8946C34.0767 14.2121 34.5155 14.4175 34.9908 14.4175C35.2924 14.4175 35.5849 14.3428 35.8409 14.1934C36.0877 14.044 36.3071 13.8386 36.4625 13.5771Z" fill="#BBA09F"/>
<path d="M25.3474 10.4583C25.3474 10.2248 25.5302 10.0381 25.7587 10.0381C25.9873 10.0381 26.1701 10.2248 26.1701 10.4583V14.8377C26.1701 15.0712 25.9873 15.2579 25.7587 15.2579C25.5302 15.2579 25.3474 15.0712 25.3474 14.8377V10.4583Z" fill="#BBA09F"/>
<path d="M50.9963 13.5775C51.1151 13.3814 51.371 13.316 51.563 13.4374C51.755 13.5588 51.8189 13.8203 51.7001 14.0164C51.4625 14.3992 51.1425 14.7167 50.7678 14.9315C50.393 15.1463 49.9634 15.2676 49.5246 15.2676C48.8208 15.2676 48.1718 14.9782 47.7147 14.5019C47.2486 14.0257 46.9652 13.3721 46.9652 12.653C46.9652 11.934 47.2486 11.271 47.7147 10.8042C48.1809 10.3279 48.8208 10.0384 49.5246 10.0384C49.9817 10.0384 50.4478 10.1972 50.8135 10.4493C51.1974 10.7108 51.4899 11.0749 51.5904 11.4858C51.6361 11.6726 51.5447 11.8593 51.3893 11.9527L48.903 13.3534C48.702 13.4654 48.4552 13.3907 48.3455 13.1853C48.2358 12.9799 48.3089 12.7278 48.51 12.6157L50.6398 11.3924C50.5667 11.2991 50.4661 11.215 50.3564 11.131C50.1188 10.9722 49.8171 10.8695 49.5246 10.8695C49.0493 10.8695 48.6105 11.0656 48.2998 11.3924C47.989 11.7099 47.7879 12.1581 47.7879 12.6437C47.7879 13.1293 47.9798 13.5775 48.2998 13.895C48.6105 14.2125 49.0493 14.4179 49.5246 14.4179C49.8263 14.4179 50.1188 14.3432 50.3747 14.1938C50.6215 14.0444 50.8409 13.839 50.9963 13.5775ZM39.5246 14.8848C39.4972 15.1182 39.2961 15.2863 39.0676 15.2583C38.8391 15.2303 38.6745 15.0249 38.702 14.7914L39.4332 8.43233C39.4606 8.2269 39.5521 8.05882 39.6892 7.92809C39.8263 7.8067 40.0091 7.72266 40.2102 7.72266C40.3839 7.72266 40.5393 7.77868 40.6764 7.8814C40.8043 7.98412 40.9049 8.12418 40.9597 8.29227L42.5776 13.7269L44.1956 8.29227C44.2413 8.12418 44.3418 7.98412 44.4789 7.8814C44.6069 7.77868 44.7714 7.72266 44.9451 7.72266C45.1462 7.72266 45.3199 7.79736 45.4661 7.92809C45.6032 8.04948 45.6946 8.2269 45.7221 8.43233L46.4533 14.7914C46.4807 15.0249 46.3162 15.2303 46.0877 15.2583C45.8592 15.2863 45.6581 15.1182 45.6307 14.8848L44.9268 8.7685L43.1535 14.7167C43.1169 14.8474 43.0347 14.9502 42.9433 15.0249C42.8427 15.0996 42.7239 15.1463 42.5868 15.1463C42.4588 15.1463 42.3308 15.0996 42.2303 15.0249C42.1297 14.9502 42.0566 14.8474 42.0201 14.7261C41.435 12.7371 40.8318 10.7481 40.2467 8.7685L39.5246 14.8848ZM64.9999 14.8381C64.9999 15.0716 64.8171 15.2583 64.5886 15.2583C64.3601 15.2583 64.1773 15.0716 64.1773 14.8381V12.6157C64.1773 12.1115 63.9944 11.6726 63.7019 11.3644C63.4094 11.0563 62.989 10.8695 62.5136 10.8695C62.0383 10.8695 61.5996 11.0656 61.2888 11.3924C60.978 11.7099 60.7769 12.1581 60.7769 12.6437C60.7769 13.1293 60.9688 13.5775 61.2888 13.895C61.5996 14.2125 62.0383 14.4179 62.5136 14.4179C62.6416 14.4179 62.7696 14.4086 62.8884 14.3806C63.0072 14.3525 63.1261 14.3152 63.2449 14.2592C63.4551 14.1564 63.7019 14.2498 63.7933 14.4646C63.8939 14.6794 63.8025 14.9315 63.5922 15.0249C63.4277 15.0996 63.254 15.1649 63.0621 15.2023C62.8793 15.249 62.6873 15.2676 62.5045 15.2676C61.8007 15.2676 61.1517 14.9782 60.6946 14.5019C60.2284 14.0257 59.9451 13.3721 59.9451 12.653C59.9451 11.934 60.2284 11.271 60.6946 10.8042C61.1608 10.3279 61.8007 10.0384 62.5045 10.0384C63.2083 10.0384 63.839 10.3186 64.2869 10.7855C64.7348 11.2524 64.9999 11.8967 64.9999 12.625V14.8381ZM58.2906 10.4586C58.2906 10.2252 58.4734 10.0384 58.7019 10.0384C58.9305 10.0384 59.1133 10.2252 59.1133 10.4586V14.8381C59.1133 15.0716 58.9305 15.2583 58.7019 15.2583C58.4734 15.2583 58.2906 15.0716 58.2906 14.8381V10.4586ZM58.2906 8.71247C58.2906 8.47902 58.4734 8.29227 58.7019 8.29227C58.9305 8.29227 59.1133 8.47902 59.1133 8.71247V9.07665C59.1133 9.31009 58.9305 9.49685 58.7019 9.49685C58.4734 9.49685 58.2906 9.31009 58.2906 9.07665V8.71247ZM56.4716 8.71247C56.4716 8.47902 56.6544 8.29227 56.8829 8.29227C57.1114 8.29227 57.2943 8.47902 57.2943 8.71247V12.6717C57.2943 13.4001 57.0292 14.0444 56.5813 14.5113C56.1334 14.9782 55.5118 15.2583 54.7988 15.2583C54.095 15.2583 53.446 14.9688 52.989 14.4926C52.5228 14.0164 52.2394 13.3627 52.2394 12.6437C52.2394 11.9247 52.5228 11.2617 52.989 10.7948C53.4551 10.3186 54.095 10.0291 54.7988 10.0291C54.9817 10.0291 55.1645 10.0478 55.3564 10.0945C55.5392 10.1412 55.7221 10.1972 55.8866 10.2719C56.0968 10.3746 56.1882 10.6267 56.0877 10.8322C55.9871 11.0469 55.7403 11.1403 55.5392 11.0376C55.4204 10.9816 55.3016 10.9349 55.1827 10.9162C55.0639 10.8882 54.9359 10.8789 54.808 10.8789C54.3327 10.8789 53.8939 11.0749 53.5831 11.4018C53.2723 11.7193 53.0712 12.1675 53.0712 12.653C53.0712 13.1386 53.2632 13.5868 53.5831 13.9043C53.8939 14.2218 54.3327 14.4272 54.808 14.4272C55.2833 14.4272 55.7038 14.2405 55.9963 13.9323C56.2888 13.6242 56.4716 13.1853 56.4716 12.6811V8.71247Z" fill="#BBA09F"/>
<path d="M23.2998 8.7122C23.2998 8.47875 23.4826 8.29199 23.7111 8.29199C23.9397 8.29199 24.1225 8.47875 24.1225 8.7122V14.8378C24.1225 15.0713 23.9397 15.258 23.7111 15.258C23.4826 15.258 23.2998 15.0713 23.2998 14.8378V8.7122Z" fill="#BBA09F"/>
<path fill-rule="evenodd" clip-rule="evenodd" d="M8.01645 0C12.2486 0 15.713 3.35229 16.0146 7.60102C15.7952 7.4236 15.5576 7.26486 15.3108 7.13413C14.5155 4.59423 12.1755 2.75467 9.42413 2.75467C6.01463 2.75467 3.24497 5.58404 3.24497 9.06706C3.24497 12.5501 6.01463 15.3795 9.42413 15.3795C9.76234 15.3795 10.1005 15.3514 10.4205 15.2954C10.649 15.4635 10.9049 15.6036 11.1609 15.725C10.192 16.1452 9.13163 16.3786 8.01645 16.3786C3.59232 16.3786 0 12.7088 0 8.1893C0 3.66978 3.59232 0 8.01645 0Z" fill="#BBA09F"/>
<path fill-rule="evenodd" clip-rule="evenodd" d="M10.3749 4.79004C11.9105 4.79004 13.2817 5.53707 14.15 6.68562C13.8118 6.61092 13.4645 6.56423 13.108 6.56423C10.5211 6.56423 8.41876 8.71194 8.41876 11.3546C8.41876 12.5218 8.8301 13.5956 9.50652 14.4267C7.29445 14.0065 5.61255 12.0269 5.61255 9.64572C5.61255 6.96576 7.74235 4.79004 10.3749 4.79004Z" fill="#BBA09F"/>
<path d="M15.3107 9.41238C14.7988 8.88946 14.0858 8.56264 13.2997 8.56264C12.5136 8.56264 11.8006 8.88946 11.2887 9.41238C10.7768 9.9353 10.4569 10.6637 10.4569 11.4667C10.4569 12.2698 10.7768 12.9981 11.2887 13.521C11.8006 14.044 12.5136 14.3708 13.2997 14.3708C14.0858 14.3708 14.7988 14.044 15.3107 13.521C15.8225 12.9981 16.1425 12.2698 16.1425 11.4667C16.1425 10.6637 15.8225 9.9353 15.3107 9.41238ZM13.2906 7.71289C14.3052 7.71289 15.2193 8.13309 15.8865 8.81476C16.5538 9.49642 16.9651 10.4302 16.9651 11.4667C16.9651 12.5032 16.5538 13.437 15.8865 14.1187C15.2193 14.8003 14.3052 15.2205 13.2906 15.2205C12.2759 15.2205 11.3527 14.8003 10.6946 14.1187C10.0273 13.437 9.61597 12.5032 9.61597 11.4667C9.61597 10.4302 10.0273 9.48708 10.6946 8.81476C11.3619 8.13309 12.2759 7.71289 13.2906 7.71289Z" fill="#BBA09F"/>
</svg>
