<svg width="50" height="50" viewBox="0 0 50 50" fill="none" xmlns="http://www.w3.org/2000/svg">
<circle cx="25" cy="25" r="24.5" stroke="#F1D8D6"/>
<path fill-rule="evenodd" clip-rule="evenodd" d="M30.7244 15.6735C27.3534 14.92 23.8578 14.92 20.4869 15.6735L20.1236 15.7539C19.1754 15.9659 18.3046 16.4366 17.6078 17.1137C16.911 17.7908 16.4155 18.6479 16.1765 19.5896C15.322 22.9566 15.322 26.4837 16.1765 29.8507C16.4045 30.7488 16.8659 31.5707 17.5139 32.233C18.1619 32.8954 18.9735 33.3746 19.8665 33.6221L20.3647 36.5964C20.3806 36.6908 20.4215 36.7793 20.4832 36.8525C20.5449 36.9258 20.6252 36.9812 20.7155 37.0129C20.8059 37.0446 20.9031 37.0515 20.9971 37.0329C21.091 37.0143 21.1783 36.9709 21.2497 36.9071L24.1758 34.2896C26.3723 34.4236 28.5768 34.248 30.7244 33.7678L31.0886 33.6875C32.0368 33.4755 32.9077 33.0048 33.6045 32.3276C34.3013 31.6505 34.7967 30.7935 35.0358 29.8517C35.8902 26.4847 35.8902 22.9577 35.0358 19.5907C34.7966 18.6488 34.301 17.7917 33.604 17.1145C32.9071 16.4374 32.036 15.9668 31.0876 15.755L30.7244 15.6735ZM21.3911 19.5028C21.192 19.4738 20.989 19.5139 20.8158 19.6164H20.8008C20.399 19.8521 20.0369 20.1489 19.7283 20.4982C19.4711 20.795 19.3319 21.095 19.2954 21.3842C19.274 21.5557 19.289 21.7292 19.3394 21.8932L19.3586 21.9039C19.6479 22.7535 20.0251 23.571 20.4858 24.3403C21.0798 25.4208 21.8109 26.4202 22.6608 27.3135L22.6865 27.35L22.7272 27.38L22.7519 27.4089L22.7819 27.4346C23.6783 28.2871 24.68 29.0216 25.7626 29.6203C27.0001 30.2942 27.7511 30.6125 28.2022 30.7453V30.7517C28.334 30.7925 28.454 30.8107 28.5751 30.8107C28.9592 30.7823 29.3228 30.6261 29.6079 30.3671C29.9561 30.0585 30.2508 29.6953 30.4801 29.2914V29.2839C30.6954 28.8767 30.6226 28.4932 30.3119 28.2328C29.6877 27.6875 29.0129 27.2031 28.2965 26.7864C27.8165 26.526 27.329 26.6835 27.1319 26.9471L26.7108 27.4785C26.4944 27.7421 26.1022 27.7057 26.1022 27.7057L26.0915 27.7121C23.1654 26.9653 22.3844 24.0028 22.3844 24.0028C22.3844 24.0028 22.3479 23.6 22.619 23.3942L23.1461 22.97C23.399 22.7642 23.5747 22.2778 23.3036 21.7978C22.8896 21.0808 22.4063 20.4061 21.8604 19.7835C21.7414 19.637 21.5744 19.5372 21.389 19.5017L21.3911 19.5028ZM26.3347 18.215C26.1926 18.215 26.0564 18.2714 25.9559 18.3719C25.8554 18.4723 25.799 18.6086 25.799 18.7507C25.799 18.8928 25.8554 19.029 25.9559 19.1295C26.0564 19.2299 26.1926 19.2864 26.3347 19.2864C27.6901 19.2864 28.8151 19.7289 29.7054 20.5775C30.1629 21.0414 30.5197 21.591 30.7533 22.1932C30.9879 22.7964 31.0951 23.4403 31.0672 24.0853C31.0643 24.1557 31.0752 24.2259 31.0994 24.292C31.1236 24.3582 31.1606 24.4189 31.2082 24.4707C31.3045 24.5754 31.4383 24.6376 31.5804 24.6435C31.7225 24.6495 31.8611 24.5988 31.9658 24.5025C32.0705 24.4063 32.1327 24.2724 32.1386 24.1303C32.1719 23.3369 32.0402 22.5452 31.7519 21.8053C31.4623 21.0619 31.0232 20.3858 30.4619 19.8189L30.4511 19.8082C29.3465 18.7528 27.9483 18.215 26.3347 18.215ZM26.2983 19.9764C26.1562 19.9764 26.0199 20.0328 25.9195 20.1333C25.819 20.2338 25.7626 20.37 25.7626 20.5121C25.7626 20.6542 25.819 20.7904 25.9195 20.8909C26.0199 20.9914 26.1562 21.0478 26.2983 21.0478H26.3165C27.2936 21.1175 28.0051 21.4432 28.5033 21.9778C29.0144 22.5285 29.279 23.2132 29.2586 24.0596C29.2554 24.2017 29.3087 24.3392 29.4068 24.442C29.505 24.5448 29.6399 24.6044 29.782 24.6076C29.9241 24.6109 30.0617 24.5576 30.1644 24.4594C30.2672 24.3613 30.3268 24.2263 30.3301 24.0842C30.3558 22.9732 29.9979 22.0142 29.2886 21.2492V21.2471C28.5633 20.4692 27.5679 20.0578 26.3701 19.9775L26.3519 19.9753L26.2983 19.9764ZM26.2779 21.771C26.2062 21.7647 26.134 21.7729 26.0655 21.7951C25.9971 21.8173 25.9338 21.8531 25.8795 21.9003C25.8251 21.9475 25.7809 22.0052 25.7493 22.0699C25.7178 22.1345 25.6996 22.2049 25.6958 22.2768C25.6921 22.3487 25.7029 22.4206 25.7275 22.4882C25.7522 22.5558 25.7902 22.6178 25.8393 22.6704C25.8885 22.723 25.9477 22.7651 26.0135 22.7943C26.0793 22.8235 26.1502 22.8392 26.2222 22.8403C26.6701 22.8639 26.9561 22.9989 27.1361 23.18C27.3172 23.3621 27.4522 23.6546 27.4769 24.1121C27.4782 24.184 27.494 24.2549 27.5233 24.3205C27.5526 24.3862 27.5948 24.4453 27.6475 24.4943C27.7001 24.5433 27.7621 24.5812 27.8297 24.6057C27.8972 24.6302 27.9691 24.6409 28.0409 24.6371C28.1127 24.6333 28.183 24.6151 28.2476 24.5835C28.3122 24.5519 28.3698 24.5077 28.4169 24.4534C28.4641 24.3991 28.4998 24.3359 28.522 24.2675C28.5442 24.1991 28.5524 24.1269 28.5461 24.0553C28.5119 23.4125 28.3104 22.8446 27.8979 22.4267C27.4833 22.0089 26.9186 21.8053 26.2779 21.771Z" fill="#F2948D"/>
</svg>
