<svg width="59" height="19" viewBox="0 0 59 19" fill="none" xmlns="http://www.w3.org/2000/svg">
<g clip-path="url(#clip0_909_3414)">
<path d="M38.42 0.0292969C34.2349 0.0292969 30.495 2.18078 30.495 6.15581C30.495 10.7144 37.1279 11.0293 37.1279 13.3194C37.1279 14.2837 36.0138 15.1468 34.1109 15.1468C31.4102 15.1468 29.3918 13.9407 29.3918 13.9407L28.5281 17.952C28.5281 17.952 30.8533 18.9708 33.9404 18.9708C38.516 18.9708 42.1164 16.7137 42.1164 12.6707C42.1164 7.85366 35.4559 7.54816 35.4559 5.42255C35.4559 4.66718 36.3705 3.83952 38.268 3.83952C40.4089 3.83952 42.1556 4.7167 42.1556 4.7167L43.0008 0.842511C43.0008 0.842511 41.1003 0.0292969 38.42 0.0292969ZM0.130878 0.321689L0.029541 0.906471C0.029541 0.906471 1.79019 1.22607 3.37595 1.8636C5.41774 2.59465 5.56319 3.02023 5.90706 4.34207L9.65421 18.6693H14.6773L22.4157 0.321689H17.4041L12.4317 12.7963L10.4027 2.22223C10.2166 1.01204 9.27408 0.321689 8.12034 0.321689H0.130878ZM24.4309 0.321689L20.4995 18.6693H25.2785L29.196 0.321689H24.4309ZM51.0847 0.321689C49.9323 0.321689 49.3218 0.933614 48.8737 2.00294L41.8723 18.6693H46.8839L47.8535 15.8915H53.959L54.5486 18.6693H58.9705L55.1128 0.321689H51.0847ZM51.7365 5.27864L53.222 12.1635H49.2422L51.7365 5.27864Z" fill="#D5BBBA"/>
</g>
<defs>
<clipPath id="clip0_909_3414">
<rect width="59" height="19" fill="white"/>
</clipPath>
</defs>
</svg>
